<svg width="218" height="71" viewBox="0 0 218 71" fill="none" xmlns="http://www.w3.org/2000/svg">
<rect width="218" height="71" fill="#D02D2F"/>
<path d="M73.6 23.1811C73.6 22.2811 73 21.5811 72 21.5811C70.5 21.5811 69 21.3811 67.6 20.9811C66.6 20.6811 65.5 20.3811 64.5 19.9811C63.4 19.5811 62.2 19.0811 61.2 18.4811C60 17.7811 58.8 16.9811 57.6 16.2811C57.2 15.9811 56.7 15.8811 56.2 16.1811C55.8 16.3811 55.5 16.6811 55.1 16.8811C53.3 18.0811 51.5 19.1811 49.4 19.8811C48.3 20.2811 47.2 20.6811 46 20.9811C44.5 21.3811 43 21.5811 41.4 21.5811C40.6 21.5811 40 22.1811 40 22.9811C40 27.4811 40 31.8811 40 36.3811C40 38.6811 40.3 40.8811 41.2 42.9811C41.8 44.4811 42.6 45.7811 43.6 46.9811C45.9 49.6811 48.9 51.4811 52.1 53.0811C53.4 53.7811 54.7 54.3811 56 54.9811C56.4 55.1811 56.8 55.2811 57.2 55.1811C57.8 54.8811 58.5 54.6811 59.1 54.2811C60.6 53.4811 62.2 52.6811 63.7 51.8811C65.4 50.9811 67 49.8811 68.4 48.5811C70.5 46.6811 72 44.4811 72.8 41.7811C73.2 40.2811 73.5 38.6811 73.5 37.1811C73.5 34.8811 73.5 32.5811 73.5 30.2811C73.6 27.7811 73.6 25.4811 73.6 23.1811ZM56.7 46.7811C50.5 46.7811 45.6 41.6811 45.6 35.4811C45.6 29.2811 50.7 24.3811 56.9 24.3811C63 24.3811 68 29.3811 68 35.5811C68 41.7811 62.9 46.7811 56.7 46.7811ZM59.9 31.8811C58.5 33.2811 57 34.7811 55.6 36.1811C55.4 36.3811 55.3 36.3811 55.1 36.1811C54.6 35.6811 54.1 35.1811 53.6 34.6811C53.4 34.4811 53 34.2811 52.7 34.2811C52.1 34.1811 51.5 34.4811 51.3 34.9811C51 35.5811 51.1 36.1811 51.6 36.6811C52.5 37.5811 53.4 38.4811 54.3 39.3811C54.6 39.6811 54.9 39.7811 55.3 39.7811C55.7 39.7811 56.1 39.5811 56.4 39.2811C57.7 37.9811 59 36.6811 60.3 35.4811C60.9 34.8811 61.5 34.2811 62.1 33.6811C62.5 33.1811 62.5 32.4811 62.1 31.9811C61.5 31.1811 60.6 31.1811 59.9 31.8811Z" fill="white"/>
<path d="M94.8 28V14.88H102.36V16.3H96.46V28H94.8ZM105.005 28.24C104.472 28.24 103.985 28.1333 103.545 27.92C103.118 27.6933 102.778 27.38 102.525 26.98C102.272 26.5667 102.145 26.0667 102.145 25.48C102.145 24.3867 102.625 23.56 103.585 23C104.545 22.44 106.065 22.0467 108.145 21.82C108.132 21.42 108.065 21.0333 107.945 20.66C107.838 20.2867 107.638 19.9867 107.345 19.76C107.052 19.5333 106.645 19.42 106.125 19.42C105.565 19.42 105.038 19.5267 104.545 19.74C104.052 19.94 103.612 20.1667 103.225 20.42L102.585 19.3C102.878 19.1 103.225 18.9067 103.625 18.72C104.025 18.52 104.458 18.36 104.925 18.24C105.392 18.1067 105.885 18.04 106.405 18.04C107.192 18.04 107.832 18.2067 108.325 18.54C108.832 18.86 109.198 19.32 109.425 19.92C109.665 20.52 109.785 21.2267 109.785 22.04V28H108.425L108.285 26.84H108.225C107.758 27.2267 107.258 27.56 106.725 27.84C106.192 28.1067 105.618 28.24 105.005 28.24ZM105.465 26.88C105.945 26.88 106.392 26.7733 106.805 26.56C107.232 26.3467 107.678 26.0333 108.145 25.62V23C107.052 23.1333 106.185 23.3067 105.545 23.52C104.918 23.72 104.465 23.9733 104.185 24.28C103.905 24.5867 103.765 24.9533 103.765 25.38C103.765 25.9133 103.932 26.3 104.265 26.54C104.598 26.7667 104.998 26.88 105.465 26.88ZM112.843 32.1V18.28H114.203L114.343 19.4H114.403C114.843 19.0267 115.33 18.7067 115.863 18.44C116.396 18.1733 116.943 18.04 117.503 18.04C118.33 18.04 119.03 18.2467 119.603 18.66C120.176 19.06 120.61 19.6333 120.903 20.38C121.196 21.1133 121.343 21.9867 121.343 23C121.343 24.0933 121.143 25.0333 120.743 25.82C120.356 26.6067 119.843 27.2067 119.203 27.62C118.563 28.0333 117.876 28.24 117.143 28.24C116.703 28.24 116.256 28.14 115.803 27.94C115.35 27.74 114.896 27.4667 114.443 27.12L114.483 28.82V32.1H112.843ZM116.863 26.86C117.396 26.86 117.87 26.7067 118.283 26.4C118.71 26.0933 119.043 25.6533 119.283 25.08C119.523 24.4933 119.643 23.8 119.643 23C119.643 22.2933 119.556 21.6733 119.383 21.14C119.21 20.5933 118.936 20.1733 118.563 19.88C118.19 19.5733 117.696 19.42 117.083 19.42C116.683 19.42 116.27 19.5333 115.843 19.76C115.416 19.9733 114.963 20.3 114.483 20.74V25.84C114.936 26.2133 115.363 26.48 115.763 26.64C116.176 26.7867 116.543 26.86 116.863 26.86ZM125.903 28.24C125.37 28.24 124.883 28.1333 124.443 27.92C124.017 27.6933 123.677 27.38 123.423 26.98C123.17 26.5667 123.043 26.0667 123.043 25.48C123.043 24.3867 123.523 23.56 124.483 23C125.443 22.44 126.963 22.0467 129.043 21.82C129.03 21.42 128.963 21.0333 128.843 20.66C128.737 20.2867 128.537 19.9867 128.243 19.76C127.95 19.5333 127.543 19.42 127.023 19.42C126.463 19.42 125.937 19.5267 125.443 19.74C124.95 19.94 124.51 20.1667 124.123 20.42L123.483 19.3C123.777 19.1 124.123 18.9067 124.523 18.72C124.923 18.52 125.357 18.36 125.823 18.24C126.29 18.1067 126.783 18.04 127.303 18.04C128.09 18.04 128.73 18.2067 129.223 18.54C129.73 18.86 130.097 19.32 130.323 19.92C130.563 20.52 130.683 21.2267 130.683 22.04V28H129.323L129.183 26.84H129.123C128.657 27.2267 128.157 27.56 127.623 27.84C127.09 28.1067 126.517 28.24 125.903 28.24ZM126.363 26.88C126.843 26.88 127.29 26.7733 127.703 26.56C128.13 26.3467 128.577 26.0333 129.043 25.62V23C127.95 23.1333 127.083 23.3067 126.443 23.52C125.817 23.72 125.363 23.9733 125.083 24.28C124.803 24.5867 124.663 24.9533 124.663 25.38C124.663 25.9133 124.83 26.3 125.163 26.54C125.497 26.7667 125.897 26.88 126.363 26.88ZM133.742 28V18.28H135.382V22.22H140.062V18.28H141.702V28H140.062V23.68H135.382V28H133.742ZM147.112 28V19.62H143.852V18.28H152.012V19.62H148.752V28H147.112ZM154.171 28V18.28H155.771V22.32C155.771 22.8533 155.758 23.42 155.731 24.02C155.705 24.62 155.665 25.2667 155.611 25.96H155.691C155.878 25.6 156.085 25.22 156.311 24.82C156.551 24.4067 156.765 24.0533 156.951 23.76L160.391 18.28H162.191V28H160.591V23.96C160.591 23.44 160.605 22.88 160.631 22.28C160.658 21.6667 160.698 21.0133 160.751 20.32H160.671C160.485 20.68 160.278 21.0667 160.051 21.48C159.825 21.88 159.611 22.2333 159.411 22.54L155.951 28H154.171ZM170.84 28V24.2H169.02C168.553 24.2 168.093 24.1467 167.64 24.04C167.187 23.92 166.78 23.74 166.42 23.5C166.06 23.2467 165.767 22.9267 165.54 22.54C165.327 22.1533 165.22 21.6933 165.22 21.16C165.22 20.44 165.387 19.8733 165.72 19.46C166.067 19.0333 166.527 18.7333 167.1 18.56C167.673 18.3733 168.32 18.28 169.04 18.28H172.48V28H170.84ZM169.32 22.92H170.84V19.56H169.32C168.56 19.56 167.96 19.6933 167.52 19.96C167.093 20.2133 166.88 20.62 166.88 21.18C166.88 21.74 167.093 22.1733 167.52 22.48C167.96 22.7733 168.56 22.92 169.32 22.92ZM164.5 28L167.88 23.38L169.26 23.88L166.38 28H164.5Z" fill="white"/>
<path d="M99.175 54.3C98.3083 54.3 97.525 54.2 96.825 54C96.1417 53.8 95.5333 53.5333 95 53.2C94.4667 52.8667 93.9917 52.4917 93.575 52.075L95.225 49.75C95.7083 50.1833 96.2333 50.5583 96.8 50.875C97.3667 51.175 97.9833 51.325 98.65 51.325C99.1833 51.325 99.65 51.2333 100.05 51.05C100.45 50.85 100.758 50.5667 100.975 50.2C101.208 49.8333 101.325 49.3833 101.325 48.85C101.325 48.05 101.092 47.4417 100.625 47.025C100.158 46.6083 99.5583 46.4 98.825 46.4C98.375 46.4 97.9917 46.4583 97.675 46.575C97.3583 46.6917 96.9583 46.9 96.475 47.2L94.825 46.15L95.275 38.125H104.275V41.225H98.45L98.175 44.2C98.4917 44.0667 98.7833 43.975 99.05 43.925C99.3167 43.8583 99.6167 43.825 99.95 43.825C100.867 43.825 101.708 44 102.475 44.35C103.242 44.7 103.85 45.2417 104.3 45.975C104.767 46.7083 105 47.6333 105 48.75C105 49.9333 104.725 50.9417 104.175 51.775C103.642 52.5917 102.933 53.2167 102.05 53.65C101.167 54.0833 100.208 54.3 99.175 54.3ZM112.863 54.275C112.43 54.275 112.071 54.25 111.788 54.2C111.505 54.1667 111.23 54.1167 110.963 54.05L111.613 50.725C111.73 50.7417 111.838 50.7667 111.938 50.8C112.055 50.8167 112.18 50.825 112.313 50.825C112.596 50.825 112.855 50.75 113.088 50.6C113.321 50.4333 113.546 50.075 113.763 49.525C113.996 48.975 114.246 48.1167 114.513 46.95C114.863 45.4333 115.171 43.9083 115.438 42.375C115.721 40.825 115.996 39.2667 116.263 37.7H125.738V54H122.038V40.8H119.088C118.921 41.95 118.738 43.0583 118.538 44.125C118.338 45.1917 118.121 46.2667 117.888 47.35C117.521 49.1667 117.113 50.575 116.663 51.575C116.23 52.575 115.705 53.275 115.088 53.675C114.471 54.075 113.73 54.275 112.863 54.275ZM129.569 54V37.7H139.769V40.8H133.244V44.075H138.794V47.15H133.244V50.9H140.019V54H129.569ZM146.44 54V40.8H141.965V37.7H154.615V40.8H150.14V54H146.44Z" fill="white"/>
</svg>
