<svg width="61" height="62" viewBox="0 0 61 62" fill="none" xmlns="http://www.w3.org/2000/svg">
<path d="M60.3 31.2C60.3 47.9 46.8 61.3 30.2 61.3C13.6 61.3 0 47.8 0 31.2C0 14.6 13.5 1.00002 30.1 1.00002C31.8 1.00002 33.1 2.30002 33.1 4.00002C33.1 5.70002 31.8 7.00002 30.1 7.00002C16.8 7.10002 6 17.9 6 31.2C6 44.5 16.8 55.3 30.1 55.3C43.4 55.3 54.2 44.5 54.2 31.2C54.2 29.5 55.5 28.2 57.2 28.2C58.9 28.2 60.3 29.5 60.3 31.2ZM30.1 22.1C31.8 22.1 33.1 20.8 33.1 19.1C33.1 17.4 31.8 16.1 30.1 16.1C21.8 16.1 15 22.8 15 31.2C15 39.6 21.7 46.3 30.1 46.3C38.5 46.3 45.2 39.6 45.2 31.2C45.2 29.5 43.9 28.2 42.2 28.2C40.5 28.2 39.2 29.5 39.2 31.2C39.2 36.2 35.2 40.2 30.2 40.2C25.2 40.2 21.2 36.2 21.2 31.2C21.2 26.2 25.2 22.1 30.1 22.1ZM28 33.3C29.2 34.5 31.1 34.5 32.3 33.3L43.5 22.1H51.3C52.1 22.1 52.9 21.8 53.4 21.2L59.4 15.2C60.1 14.5 60.4 13.5 60.3 12.6C60.1 11.6 59.5 10.8 58.7 10.4L53.6 7.80002L51 2.70002C50.6 1.80002 49.7 1.20002 48.8 1.00002C47.8 0.800024 46.9 1.20002 46.2 1.80002L40.2 7.80002C39.6 8.40002 39.3 9.20002 39.3 10V17.8L28 29C26.8 30.2 26.8 32.1 28 33.3Z" fill="#D02D2F"/>
</svg>
