<svg width="56" height="57" viewBox="0 0 56 57" fill="none" xmlns="http://www.w3.org/2000/svg">
<path d="M41.0536 15.0201C40.8296 14.9081 40.5497 14.9081 40.2698 15.0201L25.0995 21.2357C24.0359 21.6276 23.0842 22.2436 22.3005 23.0835C21.5168 23.8675 20.901 24.8194 20.4532 25.8833L14.2395 41.0022C14.1276 41.2822 14.1276 41.5621 14.2395 41.7861C14.3515 42.0661 14.5754 42.2341 14.7993 42.3461C15.0232 42.4581 15.3031 42.4581 15.583 42.3461L30.8094 36.1305C31.873 35.7386 32.7686 35.1226 33.6083 34.2827C34.392 33.4987 35.0078 32.5468 35.4556 31.4829L41.6693 16.308C41.7813 16.0281 41.7813 15.7481 41.6693 15.5241C41.5014 15.3001 41.2775 15.1321 41.0536 15.0201ZM30.1936 30.8109C29.6338 31.3709 28.7941 31.7069 28.0104 31.7069C27.3946 31.7069 26.7789 31.5389 26.2751 31.2029C25.7712 30.8669 25.3794 30.363 25.1555 29.803C24.9315 29.2431 24.8756 28.6271 24.9875 28.0112C25.0995 27.3952 25.3794 26.8352 25.8272 26.4433C26.275 25.9953 26.8348 25.7153 27.3946 25.6033C28.0104 25.4913 28.6262 25.5473 29.186 25.7713C29.7458 25.9953 30.2496 26.3873 30.5854 26.8912C30.9213 27.3952 31.0893 28.0112 31.0893 28.6271C31.1452 29.467 30.8094 30.251 30.1936 30.8109ZM51.2977 13.0603C48.2189 8.46863 43.8525 4.8849 38.7024 2.75706C33.6083 0.629219 27.9544 0.0692607 22.5244 1.18918C17.0945 2.2531 12.1123 4.94089 8.19377 8.8606C4.27522 12.7803 1.58822 17.7639 0.524618 23.1955C-0.538987 28.5711 0.0208054 34.2267 2.14802 39.3223C4.27522 44.4739 7.85789 48.8416 12.4482 51.9214C17.0385 55.0011 22.4685 56.625 28.0104 56.625C35.4556 56.625 42.565 53.6572 47.827 48.4496C53.0331 43.186 56 36.0746 56 28.6271C56 23.0835 54.3766 17.6519 51.2977 13.0603ZM47.3792 41.5621C44.8601 45.4258 41.2215 48.3936 36.9111 50.1855C32.6567 51.9774 27.9544 52.4253 23.4201 51.5294C18.8858 50.6335 14.7433 48.3936 11.4965 45.1459C8.24975 41.8981 6.01058 37.6984 5.11491 33.2188C4.21925 28.6271 4.72306 23.9795 6.45841 19.7238C8.24975 15.4681 11.2166 11.8284 15.0232 9.25257C18.8858 6.67676 23.3641 5.33286 27.9544 5.33286C34.1681 5.33286 40.0459 7.79668 44.4683 12.1644C48.8347 16.532 51.2977 22.4676 51.2977 28.6831C51.3537 33.2188 49.9542 37.7544 47.3792 41.5621Z" fill="#D02D2F"/>
</svg>
