<svg width="65" height="47" viewBox="0 0 65 47" fill="none" xmlns="http://www.w3.org/2000/svg">
<path d="M62.3274 23.1788C62.2828 22.9764 62.2309 22.8564 62.1938 22.7514C62.1121 22.5489 62.0305 22.399 61.934 22.234C61.5852 21.6191 61.0286 20.7943 60.2568 19.7519C59.1139 18.1997 57.5331 16.2276 55.7519 14.2854C53.9633 12.3433 51.9818 10.4236 49.9632 8.98387C47.1059 6.92923 44.3303 5.33952 41.4878 4.26721C38.6454 3.1874 35.7362 2.625 32.6934 2.625C29.6506 2.625 26.7413 3.1874 23.8989 4.26721C21.0565 5.34701 18.2808 6.93673 15.4236 8.97637C12.4179 11.136 9.46411 14.3379 7.1783 17.1124C6.03539 18.4997 5.07802 19.7819 4.38782 20.7793C4.03901 21.2817 3.76441 21.7091 3.54919 22.069C3.43787 22.249 3.34881 22.414 3.25975 22.6014C3.21522 22.6914 3.17069 22.7889 3.12617 22.9239C3.1039 22.9914 3.08164 23.0739 3.05195 23.1788C3.02969 23.2838 3.00742 23.4188 3 23.6213C3 23.8237 3.02969 23.9587 3.05195 24.0637C3.09648 24.2661 3.14843 24.3861 3.18554 24.4911C3.26717 24.6936 3.34881 24.8435 3.44529 25.0085C3.7941 25.6234 4.35071 26.4482 5.12255 27.4981C6.26545 29.0503 7.84623 31.0224 9.62739 32.9721C11.416 34.9142 13.3975 36.8339 15.4161 38.2736C18.2734 40.3133 21.0491 41.903 23.8915 42.9828C26.7339 44.0626 29.6431 44.625 32.6859 44.625C35.7288 44.625 38.638 44.0626 41.4804 42.9828C44.3228 41.903 47.0985 40.3133 49.9557 38.2736C52.9614 36.114 55.9152 32.9121 58.201 30.1376C59.3365 28.7503 60.3013 27.4681 60.9915 26.4707C61.3403 25.9683 61.6149 25.5409 61.8301 25.181C61.9414 25.001 62.0305 24.836 62.1196 24.6486C62.1641 24.5586 62.2086 24.4611 62.2531 24.3186C62.2754 24.2511 62.2977 24.1687 62.3274 24.0637C62.3496 23.9587 62.3719 23.8237 62.3793 23.6213C62.3793 23.4188 62.3496 23.2838 62.3274 23.1788Z" stroke="#D02D2F" stroke-width="4.5" stroke-miterlimit="10"/>
<path d="M38.9365 22.4677C37.6214 22.7044 36.28 22.2441 35.412 21.2447C34.5309 20.2452 34.2547 18.8511 34.6624 17.5886L36.2931 12.6175C35.1621 12.2492 33.9522 12.0388 32.6897 12.0388C26.2851 12.0388 21.1035 17.2204 21.1035 23.625C21.1035 30.0297 26.2851 35.2112 32.6897 35.2112C39.0944 35.2112 44.2759 30.0165 44.2759 23.625C44.2759 22.9017 44.197 22.2047 44.0787 21.5208L38.9365 22.4677Z" fill="#D02D2F"/>
</svg>
