<svg width="61" height="63" viewBox="0 0 61 63" fill="none" xmlns="http://www.w3.org/2000/svg">
<path fill-rule="evenodd" clip-rule="evenodd" d="M17.8 35.5999C23.9 34.3999 30.4 34.6999 35.7 37.7999C36.4 38.1999 37.1 38.7999 37.7 39.4999C38.9 40.8999 39.6 42.5999 39.6 44.2999C40.2 43.8999 40.9 43.3999 41.5 42.9999L47.4 38.4999C50.4 36.2999 54.7 36.2999 57.6 38.4999C60.3 40.5999 61.4 44.2999 59.5 47.3999C58.1 49.5999 56 52.6999 53.9 54.6999C51.7 56.6999 48.7 58.3999 46.4 59.4999C43.6 60.8999 40.5 61.5999 37.6 62.0999C31.6 63.0999 25.3 62.8999 19.3 61.6999C16.2 61.0999 13.1 60.6999 9.9 60.6999H2.5C1.1 60.6999 0 59.5999 0 58.1999C0 56.7999 1.1 55.6999 2.5 55.6999H9.9C13.4 55.6999 16.9 56.0999 20.3 56.7999C25.7 57.8999 31.4 57.9999 36.8 57.1999C39.5 56.7999 42 56.0999 44.3 54.9999C46.5 53.8999 49 52.4999 50.6 50.9999C52.2 49.4999 54 46.8999 55.4 44.6999C55.8 43.9999 55.8 43.0999 54.7 42.2999C53.5 41.3999 51.6 41.3999 50.4 42.2999L44.5 46.7999C42.1 48.5999 39.2 50.4999 35.6 51.0999C35.2 51.1999 34.9 51.1999 34.5 51.2999C34.3 51.2999 34.1 51.3999 33.9 51.3999C32.1 51.5999 29.9 51.5999 27.6 51.3999C26.3 51.2999 25.3 50.0999 25.4 48.6999C25.5 47.3999 26.7 46.3999 28.1 46.4999C30.2 46.6999 32 46.6999 33.6 46.4999H33.7C33.8 46.4999 33.9 46.3999 34 46.2999C35 45.3999 35.1 43.8999 34.2 42.7999C34 42.4999 33.7 42.2999 33.3 42.0999C29.4 39.7999 24.3 39.3999 18.8 40.4999C13.4 41.4999 8 43.9999 4 46.7999C2.9 47.5999 1.4 47.2999 0.6 46.1999C-0.3 44.9999 -0.1 43.4999 1 42.6999C5.6 39.4999 11.6 36.6999 17.8 35.5999Z" fill="#D02D2F"/>
<path d="M32.5002 0.6L35.8002 7.3C36.0002 7.6 36.3002 7.8 36.6002 7.9L44.0002 8.9C44.9002 9 45.2002 10.1 44.6002 10.7L39.2002 16C38.9002 16.2 38.8002 16.6 38.9002 16.9L40.2002 24.3C40.3002 25.2 39.4002 25.8 38.7002 25.4L32.0002 21.9C31.7002 21.7 31.3002 21.7 31.0002 21.9L24.4002 25.4C23.6002 25.8 22.7002 25.1 22.9002 24.3L24.2002 16.9C24.3002 16.6 24.1002 16.2 23.9002 16L18.6002 10.8C18.0002 10.2 18.3002 9.1 19.2002 9L26.6002 7.9C26.9002 7.8 27.2002 7.6 27.4002 7.3L30.7002 0.6C31.0002 -0.2 32.1002 -0.2 32.5002 0.6Z" fill="#D02D2F"/>
<path d="M10.8001 16.4L12.7001 20.2C12.8001 20.4 13.0001 20.5 13.2001 20.5L17.4001 21.1C17.9001 21.2 18.1001 21.8 17.7001 22.1L14.6001 25.1C14.5001 25.2 14.4001 25.4 14.4001 25.6L15.1001 29.8C15.2001 30.3 14.7001 30.7 14.2001 30.4L10.4001 28.4C10.2001 28.3 10.0001 28.3 9.80009 28.4L6.00009 30.4C5.60009 30.6 5.00009 30.3 5.10009 29.8L6.00009 25.8C6.00009 25.6 6.00009 25.4 5.80009 25.3L2.70009 22.3C2.30009 21.9 2.50009 21.3 3.00009 21.3L7.20009 20.7C7.40009 20.7 7.60009 20.5 7.70009 20.4L9.60009 16.6C9.90009 15.9 10.6001 15.9 10.8001 16.4Z" fill="#D02D2F"/>
<path d="M53.2999 16.4L55.1999 20.2C55.2999 20.4 55.4999 20.5 55.6999 20.5L59.8999 21.1C60.3999 21.2 60.5999 21.8 60.1999 22.1L57.0999 25.1C56.9999 25.2 56.8999 25.4 56.8999 25.6L57.5999 29.8C57.6999 30.3 57.1999 30.7 56.6999 30.4L52.8999 28.4C52.6999 28.3 52.4999 28.3 52.2999 28.4L48.4999 30.4C48.0999 30.6 47.4999 30.3 47.5999 29.8L48.2999 25.6C48.2999 25.4 48.2999 25.2 48.0999 25.1L44.9999 22.1C44.5999 21.7 44.7999 21.1 45.2999 21.1L49.4999 20.5C49.6999 20.5 49.8999 20.3 49.9999 20.2L51.8999 16.4C52.4999 15.9 53.0999 15.9 53.2999 16.4Z" fill="#D02D2F"/>
</svg>
