<svg width="64" height="39" viewBox="0 0 64 39" fill="none" xmlns="http://www.w3.org/2000/svg">
<path d="M51.9135 6.49187L47.1541 1.6575C46.0982 0.593125 44.6744 0 43.1946 0H20.5174C19.0376 0 17.6058 0.60125 16.5579 1.6575L11.7985 6.49187H0V32.4594H6.3992C8.15898 32.4594 9.5828 31.0131 9.5908 29.2419H10.5027L18.9576 37.0012C22.0452 39.5525 26.3407 39.6094 29.5163 37.3831C30.7642 38.48 32.116 39 33.6278 39C35.4516 39 37.1554 38.2525 38.5072 36.5625C40.7149 37.4481 43.3226 36.8225 44.9064 34.8562L47.5301 31.5737C48.09 30.875 48.4419 30.0706 48.6179 29.2337H54.4092C54.4172 31.0131 55.849 32.4512 57.6008 32.4512H64V6.49187H51.9135ZM4.7994 29.2094C3.91951 29.2094 3.1996 28.4781 3.1996 27.5844C3.1996 26.6906 3.91951 25.9594 4.7994 25.9594C5.67929 25.9594 6.3992 26.6906 6.3992 27.5844C6.3992 28.4862 5.67929 29.2094 4.7994 29.2094ZM43.7945 28.5106L41.1869 31.7769C40.9069 32.1181 40.403 32.1831 40.059 31.8987L37.6673 29.9325L34.6677 33.6375C34.0677 34.3769 33.1639 34.125 32.8679 33.8812L29.1884 30.68L27.6285 32.63C26.2367 34.3687 23.709 34.6287 22.1012 33.2962L12.3745 24.3587H9.5988V11.3587H13.7903L19.9575 5.1025C20.1575 5.02125 20.3255 4.94812 20.5254 4.86688H26.1967L22.3252 8.47437C19.3896 11.2044 19.2136 15.8194 21.8853 18.7606C23.3651 20.4019 28.0045 22.945 32.036 19.2075L32.8599 18.4437L43.6745 27.365C44.0185 27.6412 44.0665 28.1612 43.7945 28.5106ZM54.3932 24.3669H47.4741C47.2421 24.0825 46.9861 23.8144 46.7062 23.5869L36.4354 15.1125L37.6833 13.9587C38.3312 13.3494 38.3872 12.3256 37.7793 11.6675L36.6914 10.4812C36.0915 9.82312 35.0836 9.7825 34.4357 10.3756L28.9164 15.5187C27.9645 16.4044 26.3487 16.4775 25.4608 15.5187C24.5329 14.5112 24.6129 12.9675 25.5808 12.0738L32.14 5.97187C32.8759 5.28125 33.8358 4.9075 34.8436 4.9075L43.2026 4.875C43.4106 4.875 43.6105 4.95625 43.7545 5.11062L49.9218 11.3669H54.3932V24.3669ZM59.1926 29.2094C58.3127 29.2094 57.5928 28.4781 57.5928 27.5844C57.5928 26.6906 58.3127 25.9594 59.1926 25.9594C60.0725 25.9594 60.7924 26.6906 60.7924 27.5844C60.7924 28.4862 60.0725 29.2094 59.1926 29.2094Z" fill="white"/>
</svg>
