<svg width="21" height="21" viewBox="0 0 21 21" fill="none" xmlns="http://www.w3.org/2000/svg">
<path d="M15.2493 2.27104C13.8529 1.46168 12.2284 1 10.4986 1C5.25199 1 1 5.25199 1 10.4986C1 12.0175 1.35623 13.4539 1.99175 14.7278C2.15989 15.0669 2.21689 15.4545 2.11999 15.8193L1.55287 17.9339C1.30778 18.8515 2.14564 19.6922 3.06615 19.4471L5.18074 18.88C5.54552 18.7831 5.9331 18.8373 6.27224 19.0083C7.54612 19.6438 8.98245 20 10.5014 20C15.748 20 20 15.748 20 10.5014C20 8.77156 19.5383 7.14999 18.729 5.75071" stroke="white" stroke-miterlimit="133.333" stroke-linecap="round"/>
<path d="M6.81625 9.80615C6.54011 9.80615 6.31625 10.03 6.31625 10.3062C6.31625 10.5823 6.54011 10.8062 6.81625 10.8062H6.82454C7.10068 10.8062 7.32454 10.5823 7.32454 10.3062C7.32454 10.03 7.10068 9.80615 6.82454 9.80615H6.81625ZM10.4903 9.80615C10.2141 9.80615 9.99026 10.03 9.99026 10.3062C9.99026 10.5823 10.2141 10.8062 10.4903 10.8062H10.4985C10.7747 10.8062 10.9985 10.5823 10.9985 10.3062C10.9985 10.03 10.7747 9.80615 10.4985 9.80615H10.4903ZM14.1753 9.80615C13.8992 9.80615 13.6753 10.03 13.6753 10.3062C13.6753 10.5823 13.8992 10.8062 14.1753 10.8062H14.1836C14.4597 10.8062 14.6836 10.5823 14.6836 10.3062C14.6836 10.03 14.4597 9.80615 14.1836 9.80615H14.1753Z" stroke="white" stroke-miterlimit="133.333" stroke-linecap="round" stroke-linejoin="round"/>
</svg>
