<svg width="17" height="17" viewBox="0 0 17 17" fill="none" xmlns="http://www.w3.org/2000/svg">
<g opacity="0.5">
<path d="M13.9624 16.7929C13.2798 16.9493 12.4668 17 11.5268 17H5.31534C4.3753 17 3.56234 16.9493 2.87973 16.7929C2.18753 16.6345 1.57894 16.3564 1.10197 15.8652C0.625007 15.3741 0.354946 14.7474 0.201094 14.0345L13.9624 16.7929ZM13.9624 16.7929C14.6546 16.6345 15.2632 16.3564 15.7401 15.8652M13.9624 16.7929L15.7401 15.8652M15.7401 15.8652C16.2171 15.3741 16.4872 14.7474 16.641 14.0345L15.7401 15.8652ZM16.1523 4.91304L16.1523 4.91312C16.2928 5.56368 16.3421 6.35875 16.3421 7.31566V9.42105V11.5264C16.3421 12.4833 16.2928 13.2784 16.1523 13.929L16.1523 13.9291C16.0107 14.5848 15.7723 15.1144 15.3814 15.5169C14.9917 15.9182 14.4815 16.1612 13.8508 16.3055L13.8507 16.3055C13.2234 16.4492 12.4549 16.5 11.5268 16.5H5.31534C4.38717 16.5 3.61875 16.4492 2.99137 16.3055L2.99129 16.3055C2.36062 16.1612 1.85041 15.9182 1.46067 15.5169C1.06977 15.1144 0.831371 14.5848 0.689839 13.9291L0.689823 13.929C0.549302 13.2784 0.5 12.4833 0.5 11.5264V9.42105V7.31566C0.5 6.35875 0.549302 5.56368 0.689823 4.91312L0.689875 4.91288C0.831118 4.2574 1.06971 3.72781 1.46067 3.32521C1.85041 2.92387 2.36062 2.68093 2.99129 2.53658L2.99137 2.53656C3.61875 2.39286 4.38717 2.3421 5.31534 2.3421H11.5268C12.4549 2.3421 13.2234 2.39286 13.8507 2.53656L13.8508 2.53658C14.4815 2.68093 14.9917 2.92387 15.3814 3.32521C15.7723 3.72775 16.0107 4.25731 16.1523 4.91304Z" stroke="#303030"/>
<path d="M4.21167 1V4.36842" stroke="#303030" stroke-linecap="round"/>
<path d="M12.6328 1V4.36842" stroke="#303030" stroke-linecap="round"/>
<path d="M4.21045 8.57898H12.6315" stroke="#303030" stroke-linecap="round"/>
</g>
</svg>
