<svg width="43" height="43" viewBox="0 0 43 43" fill="none" xmlns="http://www.w3.org/2000/svg">
<rect width="43" height="43" fill="#D02D2F"/>
<path d="M25.253 22.0482C25.253 24.1309 23.5651 25.8188 21.4824 25.8188C19.3998 25.8188 17.7118 24.1309 17.7118 22.0482C17.7118 19.9655 19.3998 18.2807 21.4824 18.2807C23.5651 18.2807 25.253 19.9686 25.253 22.0482ZM32.1663 15.626L32.9621 11.8492C24.0842 11.1374 18.8154 14.4075 18.8154 14.4075C19.6671 12.0793 20.8017 10.3292 21.327 9.58315L18.4486 7C13.4408 14.0469 13.5744 20.5281 13.5744 20.5281C12.903 19.7137 12.5549 19.2319 11.9922 18.3429C11.4172 17.4383 11.0877 16.8446 10.6867 15.9773L7 17.1803C10.8607 25.2499 16.2633 28.1377 16.2633 28.1377C13.8076 28.5263 11.7653 28.4392 10.8638 28.3708L10.0619 32.1694C18.461 32.9217 24.1993 29.6267 24.1993 29.6267C23.6832 31.3301 22.2782 33.5371 21.6876 34.4231L24.5598 37C29.4246 30.1893 29.4526 23.4501 29.4526 23.4501C30.8048 24.9546 31.8959 27.087 32.3404 28.032L36.0333 26.8259C32.6481 19.3189 26.7544 15.8685 26.7544 15.8685C29.1511 15.4737 31.2493 15.5546 32.1663 15.626Z" fill="white"/>
</svg>
