<svg width="43" height="43" viewBox="0 0 43 43" fill="none" xmlns="http://www.w3.org/2000/svg">
<rect width="43" height="43" fill="#D02D2F"/>
<path d="M21.7627 11.5443C17.8639 11.5443 14.6741 14.7342 14.6741 18.6329C14.6741 22.5316 17.8639 25.7215 21.7627 25.7215C25.6614 25.7215 28.8513 22.5316 28.8513 18.6329C28.8513 14.7342 25.6614 11.5443 21.7627 11.5443ZM33.6361 31.1266L30.5348 24.6582C31.6867 22.9747 32.3956 20.8481 32.3956 18.6329C32.3956 12.7848 27.6108 8 21.7627 8C15.9146 8 11.1297 12.7848 11.1297 18.6329C11.1297 20.9367 11.8386 22.9747 13.0791 24.7468L10.0665 31.1266C9.97785 31.3924 9.97785 31.7468 10.0665 31.924C10.1551 32.1013 10.5095 32.3671 10.7753 32.3671L14.9399 32.6329L17.7753 35.7342C17.9525 35.9114 18.2184 36 18.3956 36C18.3956 36 18.4842 36 18.5728 36C18.8386 36 19.1044 35.7342 19.2816 35.4684L21.8513 30.1519L24.4209 35.4684C24.5095 35.7342 24.7753 35.9114 25.1297 36C25.1297 36 25.2184 36 25.307 36C25.5728 36 25.75 35.9114 25.9272 35.7342L28.7627 32.6329L32.9272 32.3671C33.193 32.3671 33.4589 32.1899 33.6361 31.924C33.8133 31.6582 33.7247 31.3924 33.6361 31.1266ZM21.7627 27.4937C16.8892 27.4937 12.9019 23.5063 12.9019 18.6329C12.9019 13.7595 16.8892 9.77215 21.7627 9.77215C26.6361 9.77215 30.6234 13.7595 30.6234 18.6329C30.6234 23.5063 26.6361 27.4937 21.7627 27.4937Z" fill="white"/>
</svg>
