<svg width="43" height="43" viewBox="0 0 43 43" fill="none" xmlns="http://www.w3.org/2000/svg">
<rect width="43" height="43" fill="#D02D2F"/>
<path fill-rule="evenodd" clip-rule="evenodd" d="M25.157 16.0535C25.6541 16.5671 25.8328 17.2919 25.7483 17.9874C25.6249 19.0015 25.3324 19.9505 24.988 20.9094C24.6209 21.9332 24.2472 22.957 23.8736 23.9776C23.2757 25.6124 22.6714 27.244 22.0768 28.8822C21.9306 29.2884 21.8234 29.724 21.7811 30.153C21.7356 30.621 22.0703 30.8518 22.4927 30.6438C22.8306 30.478 23.1588 30.2505 23.4252 29.984C23.8573 29.5452 24.2895 29.1064 24.7086 28.6579C24.9198 28.4336 25.1278 28.2061 25.3292 27.9753C25.4917 27.7901 25.6574 27.5138 25.8816 27.4033C26.3039 27.192 26.6289 27.7121 26.5541 28.0761C26.4826 28.4239 26.2422 28.7327 26.0213 29.0089L26.005 29.0284C25.9855 29.0544 25.966 29.0804 25.9465 29.1032C25.2025 30.049 24.3902 30.9591 23.4642 31.7294C22.5544 32.4834 21.5472 33.127 20.4392 33.543C20.0786 33.6795 19.7082 33.79 19.3345 33.8745C18.61 34.0403 17.8074 34.0273 17.0666 33.92C16.524 33.842 16.0334 33.4942 15.8027 32.9904C15.4031 32.1129 15.6825 31.0338 15.8872 30.14C16.1406 29.0479 16.5208 28.0079 16.9107 26.9613L16.9399 26.8833L16.9561 26.8443L16.9854 26.7663L17.0146 26.6883C17.4663 25.4759 17.9276 24.2701 18.3923 23.061C18.8147 21.9592 19.2403 20.8606 19.6594 19.7588C19.6919 19.6743 19.7277 19.5898 19.7634 19.5085L19.7764 19.476C19.8674 19.2615 19.9616 19.047 19.9941 18.826C20.0753 18.2897 19.6919 17.8151 19.1558 18.1239C18.2298 18.657 17.5345 19.45 16.8489 20.2496L16.7644 20.3471C16.55 20.5941 16.3356 20.8444 16.1146 21.0816C15.8969 21.3189 15.637 21.6114 15.2633 21.3384C14.8637 21.0491 14.9807 20.6786 15.2081 20.3666C16.4688 18.6245 17.9829 16.9961 19.9584 16.0763C20.7836 15.6928 21.9371 15.2995 23.0158 15.2865C23.8281 15.2735 24.5981 15.475 25.157 16.0535ZM26.4014 8.20099C27.4411 8.60402 28 9.50758 28 10.7784C28 13.0698 25.5274 14.6364 23.4577 13.6549C22.3887 13.1478 21.8689 11.9452 22.1288 10.5802C22.4862 8.69177 24.6144 7.50544 26.4014 8.20099Z" fill="white"/>
</svg>
