<svg width="26" height="26" viewBox="0 0 26 26" fill="none" xmlns="http://www.w3.org/2000/svg">
<path d="M13 7V15M13 15L16 11.5709M13 15L10 11.5709" stroke="white" stroke-width="1.5" stroke-miterlimit="133.333" stroke-linecap="round" stroke-linejoin="round"/>
<path d="M18 18H12.9981H8" stroke="white" stroke-width="1.5" stroke-miterlimit="133.333" stroke-linecap="round"/>
<path d="M1 13C1 7.34383 1 4.51395 2.75698 2.75698C4.51395 1 7.34383 1 13 1C18.6562 1 21.486 1 23.243 2.75698C25 4.51395 25 7.34383 25 13C25 18.6562 25 21.486 23.243 23.243C21.486 25 18.6562 25 13 25C7.34383 25 4.51395 25 2.75698 23.243C1 21.486 1 18.6598 1 13Z" stroke="white" stroke-width="1.5" stroke-miterlimit="133.333"/>
</svg>
