<svg width="43" height="43" viewBox="0 0 43 43" fill="none" xmlns="http://www.w3.org/2000/svg">
<rect width="43" height="43" fill="#D02D2F"/>
<path d="M19.7831 32.7797C20.2082 33.2087 21 32.9744 21 32.3941V11.405C19.7012 10.2011 18.2892 9.68929 16.8188 9.38651C14.2172 8.85665 11.9043 8.97199 10.4884 9.14501C8.91659 9.33244 8 10.6229 8 11.8916V27.7046C8 29.4131 9.54455 30.7612 11.3387 30.7071C12.8248 30.6603 14.8842 30.7108 16.7525 31.1289C18.1761 31.4461 19.081 32.0696 19.7831 32.7797Z" fill="white"/>
<path d="M23.2166 32.7797C22.7915 33.2087 22 32.9744 22 32.394V11.4047C23.2984 10.2044 24.7139 9.68896 26.18 9.38978C28.7807 8.85631 31.0969 8.97166 32.5123 9.14468C34.0798 9.33211 35 10.6225 35 11.8913V27.7045C35 29.4131 33.4559 30.7612 31.6623 30.7071C30.1767 30.6603 28.1179 30.7107 26.2501 31.1288C24.8269 31.446 23.9223 32.0696 23.2166 32.7797Z" fill="white"/>
</svg>
