<svg width="21" height="25" viewBox="0 0 21 25" fill="none" xmlns="http://www.w3.org/2000/svg">
<path d="M20 8.66667V19.9098C20 21.3397 20 22.0565 19.7028 22.6047C19.4423 23.0838 19.027 23.4748 18.5181 23.7202C17.9359 24 17.1787 24 15.6561 24H5.3439C3.82537 24 3.06407 24 2.48189 23.7202C1.973 23.4748 1.55775 23.0838 1.29719 22.6047C1 22.0565 1 21.3435 1 19.9098V5.09017C1 3.66033 1 2.9435 1.29719 2.39533C1.55775 1.91617 1.973 1.52517 2.48189 1.27983C3.06407 1 3.8213 1 5.3439 1H11.8577M20 8.66667L11.8577 1M20 8.66667H13.2134C12.4643 8.66667 11.8577 8.0955 11.8577 7.39017V1" stroke="#D02D2F" stroke-width="2" stroke-miterlimit="133.333" stroke-linecap="round" stroke-linejoin="round"/>
</svg>
