<svg width="45" height="45" viewBox="0 0 45 45" fill="none" xmlns="http://www.w3.org/2000/svg">
<rect x="0.5" y="0.5" width="44" height="44" rx="22" fill="white" stroke="#303030"/>
<path d="M15 29V26.8841C15 26.8841 15.0442 26.2539 15.4867 25.8937C16.9912 24.6332 20.531 24.3631 22.4779 24.3631C24.4248 24.3631 27.9646 24.6332 29.469 25.8937C29.9558 26.2539 30 26.8841 30 26.8841V29M22.4779 21.8151C24.3805 21.8151 25.885 20.2395 25.885 18.3487C25.885 16.4129 24.3363 14.8823 22.4779 14.8823C20.6195 14.8823 19.0708 16.4129 19.0708 18.3037C19.0708 20.2395 20.6195 21.8151 22.4779 21.8151Z" stroke="#303030"/>
</svg>
