<svg width="45" height="45" viewBox="0 0 45 45" fill="none" xmlns="http://www.w3.org/2000/svg">
<rect x="0.5" y="0.5" width="44" height="44" rx="22" fill="white" stroke="#303030"/>
<path d="M27.2493 14.271C25.8529 13.4617 24.2284 13 22.4986 13C17.252 13 13 17.252 13 22.4986C13 24.0175 13.3562 25.4539 13.9918 26.7278C14.1599 27.0669 14.2169 27.4545 14.12 27.8193L13.5529 29.9339C13.3078 30.8515 14.1456 31.6922 15.0661 31.4471L17.1807 30.88C17.5455 30.7831 17.9331 30.8373 18.2722 31.0083C19.5461 31.6438 20.9825 32 22.5014 32C27.748 32 32 27.748 32 22.5014C32 20.7716 31.5383 19.15 30.729 17.7507" stroke="#303030" stroke-miterlimit="133.333" stroke-linecap="round"/>
<path d="M18.8162 21.8062C18.54 21.8062 18.3162 22.03 18.3162 22.3062C18.3162 22.5823 18.54 22.8062 18.8162 22.8062H18.8244C19.1006 22.8062 19.3244 22.5823 19.3244 22.3062C19.3244 22.03 19.1006 21.8062 18.8244 21.8062H18.8162ZM22.4902 21.8062C22.214 21.8062 21.9902 22.03 21.9902 22.3062C21.9902 22.5823 22.214 22.8062 22.4902 22.8062H22.4985C22.7746 22.8062 22.9985 22.5823 22.9985 22.3062C22.9985 22.03 22.7746 21.8062 22.4985 21.8062H22.4902ZM26.1752 21.8062C25.8991 21.8062 25.6752 22.03 25.6752 22.3062C25.6752 22.5823 25.8991 22.8062 26.1752 22.8062H26.1835C26.4597 22.8062 26.6835 22.5823 26.6835 22.3062C26.6835 22.03 26.4597 21.8062 26.1835 21.8062H26.1752Z" stroke="#303030" stroke-miterlimit="133.333" stroke-linecap="round" stroke-linejoin="round"/>
</svg>
