<svg width="36" height="36" viewBox="0 0 36 36" fill="none" xmlns="http://www.w3.org/2000/svg">
<rect width="36" height="36" fill="#D02D2F"/>
<path d="M6 25.2293V27.1376C6 28.7445 9.86681 30 14.6376 30C19.4083 30 23.2751 28.6943 23.2751 27.1376V25.2293C21.417 26.5349 18.0022 27.1376 14.6376 27.1376C11.2729 27.1376 7.85808 26.5349 6 25.2293ZM20.3624 12.7751C25.1332 12.7751 29 11.4694 29 9.91266C29 8.3559 25.1332 7 20.3624 7C15.5917 7 11.7751 8.30568 11.7751 9.86245C11.7751 11.4192 15.6419 12.7751 20.3624 12.7751ZM6 20.5087V22.8188C6 24.4258 9.86681 25.6812 14.6376 25.6812C19.4083 25.6812 23.2751 24.3755 23.2751 22.8188V20.5087C21.417 22.0153 18.0022 22.8188 14.6376 22.8188C11.2729 22.8188 7.85808 22.0153 6 20.5087ZM24.6812 21.0109C27.2424 20.5087 29 19.6048 29 18.5V16.5917C27.9454 17.345 26.4389 17.8472 24.6812 18.1485V21.0109ZM14.6376 14.1812C9.86681 14.1812 6 15.7882 6 17.7969C6 19.8057 9.86681 21.4127 14.6376 21.4127C19.4083 21.4127 23.2751 19.8057 23.2751 17.7969C23.2751 15.7882 19.4083 14.1812 14.6376 14.1812ZM24.4804 16.7424C27.1921 16.2402 29 15.286 29 14.2314V12.3231C27.393 13.4279 24.6812 14.0808 21.7686 14.1812C23.1245 14.7838 24.0786 15.6376 24.4804 16.7424Z" fill="white"/>
</svg>
