<svg width="60" height="60" viewBox="0 0 60 60" fill="none" xmlns="http://www.w3.org/2000/svg">
<rect width="60" height="60" fill="#D02D2F"/>
<path d="M46.9075 36.343H45.9606C44.4311 36.343 43.3386 35.8285 42.7559 35.314C42.2461 34.8731 41.5906 34.5056 40.935 34.5056H39.9882C39.2598 34.5056 38.6772 34.8731 38.1673 35.314C37.5846 35.8285 36.4193 36.343 34.9626 36.343C33.5059 36.343 32.3406 35.8285 31.7579 35.314C31.248 34.8731 30.5925 34.5056 29.937 34.5056H28.9902C28.2618 34.5056 27.6791 34.8731 27.1693 35.314C26.5866 35.8285 25.4213 36.343 23.9646 36.343C22.435 36.343 21.3425 35.8285 20.7598 35.314C20.25 34.8731 19.5945 34.5056 18.939 34.5056H17.9193C17.1909 34.5056 16.6083 34.8731 16.0984 35.314C15.5157 35.8285 14.3504 36.343 12.8937 36.343H11.9469C11.437 36.343 11 36.784 11 37.2984V39.1359C11 39.6503 11.437 40.0913 11.9469 40.0913H12.8937C15.1516 40.0913 17.0453 39.3563 18.4291 38.2539C19.7402 39.4298 21.7067 40.0913 23.9646 40.0913C26.2224 40.0913 28.1161 39.3563 29.5 38.2539C30.811 39.4298 32.7776 40.0913 35.0354 40.0913C37.2933 40.0913 39.187 39.3563 40.5709 38.2539C41.8819 39.4298 43.8484 40.0913 46.1063 40.0913H47.0532C47.563 40.0913 48 39.6503 48 39.1359V37.2984C47.8543 36.7105 47.4173 36.343 46.9075 36.343ZM46.9075 43.2517H45.9606C44.4311 43.2517 43.3386 42.7372 42.7559 42.2227C42.2461 41.7817 41.5906 41.4143 40.935 41.4143H39.9882C39.2598 41.4143 38.6772 41.7817 38.1673 42.2227C37.5846 42.7372 36.4193 43.2517 34.9626 43.2517C33.5059 43.2517 32.3406 42.7372 31.7579 42.2227C31.248 41.7817 30.5925 41.4143 29.937 41.4143H28.9902C28.2618 41.4143 27.6791 41.7817 27.1693 42.2227C26.5866 42.7372 25.4213 43.2517 23.9646 43.2517C22.435 43.2517 21.3425 42.7372 20.7598 42.2227C20.25 41.7817 19.5945 41.4143 18.939 41.4143H17.9193C17.1909 41.4143 16.6083 41.7817 16.0984 42.2227C15.5157 42.7372 14.3504 43.2517 12.8937 43.2517H11.9469C11.437 43.2517 11 43.6926 11 44.2071V46.0445C11 46.559 11.437 47 11.9469 47H12.8937C15.1516 47 17.0453 46.265 18.4291 45.1626C19.7402 46.3385 21.7067 47 23.9646 47C26.2224 47 28.1161 46.265 29.5 45.1626C30.811 46.3385 32.7776 47 35.0354 47C37.2933 47 39.187 46.265 40.5709 45.1626C41.8819 46.3385 43.8484 47 46.1063 47H47.0532C47.563 47 48 46.559 48 46.0445V44.2071C47.8543 43.6926 47.4173 43.2517 46.9075 43.2517ZM23.8917 34.4321V28.8463H34.9626V34.4321C36.0551 34.4321 36.7106 34.0646 36.9291 33.9176C37.439 33.4031 38.0217 33.1091 38.6043 32.8886V19.5857C38.6043 18.5568 39.4055 17.7483 40.4252 17.7483C41.4449 17.7483 42.3189 18.5568 42.3189 19.5857V20.5412C42.3189 21.0557 42.7559 21.4967 43.2657 21.4967H45.0866C45.5965 21.4967 46.0335 21.0557 46.0335 20.5412V19.5857C46.0335 16.4989 43.5571 14 40.498 14C37.439 14 34.9626 16.4989 34.9626 19.5857V25.1715H23.8917V19.5857C23.8917 18.5568 24.6929 17.7483 25.7126 17.7483C26.7323 17.7483 27.5335 18.5568 27.5335 19.5857V20.5412C27.5335 21.0557 27.9705 21.4967 28.4803 21.4967H30.3012C30.811 21.4967 31.248 21.0557 31.248 20.5412V19.5857C31.248 16.4989 28.7717 14 25.7126 14C22.6535 14 20.1772 16.4989 20.1772 19.5857V32.8886C20.7598 33.1091 21.3425 33.4766 21.8524 33.9176C22.1437 34.0646 22.7992 34.4321 23.8917 34.4321Z" fill="white"/>
</svg>
