<svg width="36" height="36" viewBox="0 0 36 36" fill="none" xmlns="http://www.w3.org/2000/svg">
<rect width="36" height="36" fill="#D02D2F"/>
<path d="M7 24.6824C7 25.4353 7.64706 26 8.35882 26H27.6412C28.4176 26 29 25.3725 29 24.6824V18.0314H7V24.6824ZM12.5 19.349H15.2176C15.9941 19.349 16.5765 19.9765 16.5765 20.6667C16.5765 21.4196 15.9294 21.9843 15.2176 21.9843H12.5C11.7235 21.9843 11.1412 21.3569 11.1412 20.6667C11.1412 19.9137 11.7235 19.349 12.5 19.349ZM27.6412 10H8.35882C7.64706 10 7 10.6275 7 11.3176V15.3333H29V11.3176C29 10.6275 28.3529 10 27.6412 10Z" fill="white"/>
</svg>
