<svg width="36" height="36" viewBox="0 0 36 36" fill="none" xmlns="http://www.w3.org/2000/svg">
<rect width="36" height="36" fill="#D02D2F"/>
<path d="M16.7723 6.06219C14.8333 6.27764 13.5406 7.08556 13.002 8.53982C12.7327 9.29387 12.6788 9.61704 12.6788 11.3406V12.9026L12.5172 12.9564C12.1941 13.0642 12.0863 13.4951 12.0863 14.303C12.1402 15.2725 12.6249 16.4036 13.3251 17.1576C13.5406 17.3731 13.5945 17.4808 13.756 17.9117C13.9715 18.5042 14.0253 18.6657 14.3485 19.2044L14.6178 19.5814V20.2816V20.9818L14.0253 21.305C13.2174 21.6281 12.4634 22.0052 10.7398 22.7054C8.58535 23.621 8.31604 23.7287 7.93901 24.1596C7.4004 24.7521 6.91564 25.8293 6.53861 27.1758C6.26931 28.2531 6 29.9228 6 30.7307V31H17.9572H29.9144V30.7846C29.9144 30.2998 29.8067 29.3303 29.699 28.5762C29.322 26.4218 28.6756 24.8059 27.9216 24.0519C27.5984 23.7287 27.1675 23.5671 25.2285 22.7054C23.5588 22.0052 22.7509 21.6281 21.943 21.1972L21.3505 20.8741V20.1739V19.4737L21.6198 19.0966C21.943 18.6119 22.0507 18.3964 22.2123 17.804C22.3739 17.3731 22.4277 17.2654 22.6432 17.0499C23.3434 16.2959 23.882 15.1648 23.882 14.1953C23.9358 13.3873 23.7742 12.9026 23.4511 12.8487H23.2356V11.5022C23.2356 10.0479 23.1818 9.50932 23.0202 8.86298C22.5893 7.24714 21.4582 6.38536 19.5731 6.06219C19.0344 6.00833 17.3647 5.95447 16.7723 6.06219ZM16.1798 6.76239C16.3952 6.92398 16.2337 7.08556 15.9644 7.13942C15.695 7.19328 15.5335 7.08556 15.5335 6.92398C15.5335 6.81625 15.5873 6.76239 15.6412 6.76239C15.8028 6.65467 16.1259 6.70853 16.1798 6.76239ZM20.2194 6.76239C20.3271 6.81625 20.3271 6.87011 20.3271 6.92398C20.3271 7.08556 20.1655 7.19328 19.8962 7.13942C19.6808 7.13942 19.5731 7.0317 19.5731 6.92398C19.6269 6.70853 20.004 6.60081 20.2194 6.76239ZM19.5192 12.7949C20.2194 12.9026 20.758 13.118 21.4582 13.4951L22.0507 13.7644V14.5723V15.3263L22.5893 14.4646L23.1279 13.6028V14.0337C23.1818 14.9493 22.697 16.0265 21.943 16.7806C21.7275 16.996 21.6737 17.1038 21.5121 17.4808C20.6503 20.2816 18.0649 21.4127 15.9644 19.9046C15.2103 19.3659 14.6178 18.5042 14.2946 17.4808C14.1869 17.1038 14.1331 16.996 13.8638 16.7806C13.1636 16.0265 12.6788 15.0032 12.6788 14.0875C12.6788 13.8721 12.6788 13.7105 12.7327 13.7105C12.7327 13.7105 13.002 14.0875 13.2713 14.5723L13.756 15.4341V14.6261V13.8182L14.4024 13.4951C15.318 13.0642 16.1798 12.7949 17.0416 12.741C17.6879 12.6333 19.0344 12.6871 19.5192 12.7949ZM16.1798 20.8741C16.7723 21.1434 17.2032 21.2511 17.9572 21.2511C18.4958 21.2511 18.7113 21.2511 19.0344 21.1434C19.4653 21.0356 20.0578 20.7663 20.4348 20.5509L20.6503 20.4432V20.8202C20.6503 21.682 20.3271 22.5438 19.7885 23.0824C19.1422 23.7287 18.2804 23.998 17.4725 23.7826C16.2337 23.4594 15.3719 22.2745 15.3719 20.8202V20.4432L15.6412 20.6048C15.695 20.6048 15.9644 20.7663 16.1798 20.8741ZM14.7794 21.8974C14.8333 22.0052 14.941 22.3283 15.0487 22.5438C15.4796 23.4594 16.1259 24.0519 17.0416 24.3751C17.3647 24.4828 17.4725 24.4828 17.9572 24.4828C18.442 24.4828 18.6036 24.4828 18.8729 24.3751C19.7885 24.0519 20.4887 23.4594 20.9196 22.5438C21.0273 22.3283 21.135 22.059 21.1889 21.8974C21.2428 21.7897 21.2428 21.682 21.2966 21.682C21.3505 21.682 21.4043 21.7358 21.5659 21.7897L21.7814 21.8974V24.1057V26.3141H18.0649H14.3485V24.1057V21.8974L14.564 21.7897C14.6717 21.7358 14.7794 21.682 14.7794 21.682C14.6717 21.6281 14.7255 21.7358 14.7794 21.8974ZM11.8709 24.6982V26.3679H11.6016C11.3861 26.3679 11.3323 26.3679 11.2246 26.4756L11.1168 26.5834V28.4685V30.3537H8.90851H6.7002L6.75406 29.9228C6.91564 27.9299 7.56198 25.7754 8.26218 24.8598C8.53148 24.5366 8.63921 24.4289 9.0701 24.2135C9.60871 23.9442 11.7632 23.0285 11.8709 23.0285C11.8709 23.0285 11.8709 23.4055 11.8709 24.6982ZM25.1746 23.4594C26.5212 24.0519 27.1675 24.3212 27.3291 24.4828C28.137 25.183 28.9449 27.6067 29.1065 29.8689L29.1604 30.2998H27.0059H24.7976V28.4147V26.5295L24.6899 26.4756C24.5822 26.3679 24.5283 26.3679 24.3129 26.3679H24.0436V24.6982C24.0436 23.7826 24.0436 23.0285 24.0974 23.0285C24.0974 23.0285 24.5822 23.244 25.1746 23.4594Z" fill="white"/>
</svg>
