<svg width="60" height="60" viewBox="0 0 60 60" fill="none" xmlns="http://www.w3.org/2000/svg">
<rect width="60" height="60" fill="#D02D2F"/>
<path d="M24.4733 36.5152C23.8108 36.5152 23.231 37.097 23.231 37.7619V42.8316C23.231 43.4965 23.8108 44.0783 24.4733 44.0783C25.1358 44.0783 25.7155 43.4965 25.7155 42.8316V37.7619C25.7155 37.0139 25.1358 36.5152 24.4733 36.5152ZM29.5251 31.3623C28.8626 31.3623 28.2828 31.9441 28.2828 32.609V37.6787C28.2828 38.3436 28.8626 38.9254 29.5251 38.9254C30.1876 38.9254 30.7673 38.3436 30.7673 37.6787V32.609C30.7673 31.9441 30.1876 31.3623 29.5251 31.3623ZM48.3244 45.9068C46.0055 44.7432 43.2726 44.8263 40.9537 46.073V39.5072C44.1835 36.4321 46.0055 32.1103 46.0055 27.6223C46.0055 18.3969 38.6349 11 29.5251 11C20.4153 11 13.0447 18.3969 13.0447 27.5392C13.0447 32.0272 14.8666 36.349 18.0964 39.4241V45.9899C15.8604 44.7432 13.1275 44.6601 10.7258 45.8237C10.0633 46.1561 9.81483 46.9041 10.1461 47.569C10.4774 48.2339 11.2227 48.4832 11.8852 48.1508C13.6244 47.2365 15.6948 47.4028 17.3511 48.5663C20.084 50.4779 23.6451 50.4779 26.4609 48.5663C28.3657 47.2365 30.7673 47.2365 32.5893 48.5663C33.9972 49.5637 35.5707 49.9792 37.1442 49.9792C38.8005 49.9792 40.5396 49.3143 41.6991 48.5663C43.3554 47.4028 45.4258 47.2365 47.1649 48.1508C47.8275 48.4832 48.5728 48.2339 48.9041 47.569C49.1525 46.9872 48.9041 46.2392 48.3244 45.9068ZM29.5251 18.6462C33.9972 18.6462 37.7239 21.9707 38.3036 26.2925C31.5955 26.2925 27.4547 26.2925 20.7466 26.2925C21.3263 21.9707 25.053 18.6462 29.5251 18.6462ZM35.1566 47.1534C35.5707 46.9041 35.8191 46.4885 35.8191 46.073V40.3383C35.8191 39.6734 35.2394 39.0916 34.5769 39.0916C33.9143 39.0916 33.3346 39.6734 33.3346 40.3383V46.073V46.1561C32.5065 45.7405 31.6783 45.4081 30.7673 45.2419V42.9148C30.7673 42.2499 30.1876 41.6681 29.5251 41.6681C28.8626 41.6681 28.2828 42.2499 28.2828 42.9148V45.2419C27.1234 45.4081 26.0468 45.9068 25.053 46.5717C23.7279 47.4859 22.1544 47.7352 20.6637 47.4028V28.8689C22.0716 28.8689 21.7404 28.8689 23.231 28.8689V32.6921C23.231 33.357 23.8108 33.9387 24.4733 33.9387C25.1358 33.9387 25.7155 33.357 25.7155 32.6921V28.8689H33.3346V35.2685C33.3346 35.9334 33.9143 36.5152 34.5769 36.5152C35.2394 36.5152 35.8191 35.9334 35.8191 35.2685V28.8689H38.3864V47.4028C37.3098 47.569 36.2332 47.569 35.1566 47.1534Z" fill="white"/>
</svg>
