<svg width="60" height="60" viewBox="0 0 60 60" fill="none" xmlns="http://www.w3.org/2000/svg">
<rect width="60" height="60" fill="#D02D2F"/>
<path d="M27.262 33.0095V16.2464C27.262 13.346 24.9091 11 22 11C19.0909 11 16.738 13.346 16.738 16.2464V33.0095C15.0267 34.545 14 36.7204 14 39.0237C14 43.4171 17.5936 47 22 47C26.4064 47 30 43.4171 30 39.0237C30 36.7204 28.9733 34.545 27.262 33.0095ZM19.3476 16.2464C19.3476 14.7962 20.5455 13.6019 22 13.6019C23.4545 13.6019 24.6524 14.7962 24.6524 16.2464V25.5877H19.3476V16.2464Z" fill="white"/>
<path d="M33.2066 17H43.7934C44.4551 17 45 16.3226 45 15.5C45 14.6774 44.4551 14 43.7934 14H33.2066C32.5449 14 32 14.6774 32 15.5C32 16.3226 32.5449 17 33.2066 17Z" fill="white"/>
<path d="M33.2066 24H43.7934C44.4551 24 45 23.3226 45 22.5C45 21.6774 44.4551 21 43.7934 21H33.2066C32.5449 21 32 21.6774 32 22.5C32 23.3226 32.5449 24 33.2066 24Z" fill="white"/>
<path d="M43.9253 28H33.0747C32.4853 28 32 28.6774 32 29.5C32 30.3226 32.4853 31 33.0747 31H43.9253C44.5147 31 45 30.3226 45 29.5C44.9653 28.629 44.48 28 43.9253 28Z" fill="white"/>
</svg>
