<svg width="60" height="60" viewBox="0 0 60 60" fill="none" xmlns="http://www.w3.org/2000/svg">
<rect width="60" height="60" fill="#D02D2F"/>
<path d="M22.1641 41.5213C22.5625 42.1892 22.8281 42.9907 22.8281 43.7922C22.8281 46.1299 20.9688 48 18.6445 48C16.3203 48 14.4609 46.1299 14.4609 43.7922C14.4609 42.9907 14.6602 42.1892 15.125 41.5213L17.5156 37.4471C17.7812 37.0464 18.1797 36.7792 18.6445 36.7792C19.1094 36.7792 19.5742 37.0464 19.7734 37.4471L22.1641 41.5213ZM45.7383 19.6809H37.1055V19.4805C37.1055 18.7458 36.5078 18.1447 35.7773 18.1447H33.7852V17.0093H39.1641C39.8945 17.0093 40.4922 16.4082 40.4922 15.6735V14.9388C40.4922 13.3358 39.1641 12 37.5703 12H25.5508C23.957 12 22.6289 13.3358 22.6289 14.9388V15.6735C22.6289 16.4082 23.2266 17.0093 23.957 17.0093H29.3359V18.1447H27.3438C26.6133 18.1447 26.0156 18.7458 26.0156 19.4805V19.6809H22.4961C17.7148 19.6809 13.7969 23.6215 13.7969 28.4304V32.9054C13.332 33.1057 13 33.5733 13 34.1076C13 34.8423 13.5977 35.4434 14.3281 35.4434H15.125H21.4336H22.1641C22.8945 35.4434 23.4922 34.8423 23.4922 34.1076C23.4922 33.5733 23.2266 33.1725 22.7617 32.9054V29.8998C22.7617 29.0983 23.4258 28.4972 24.1562 28.4972H26.0156V28.9647C26.0156 29.6994 26.6133 30.3006 27.3438 30.3006H35.7109C36.4414 30.3006 37.0391 29.6994 37.0391 28.9647V28.898H45.6719C46.4023 28.898 47 28.2968 47 27.5622V21.0167C47 20.282 46.4688 19.6809 45.7383 19.6809Z" fill="white"/>
</svg>
