<svg width="36" height="36" viewBox="0 0 36 36" fill="none" xmlns="http://www.w3.org/2000/svg">
<rect width="36" height="36" fill="#D02D2F"/>
<path d="M11.0772 13.0114L14.6395 16.6293C15.2517 16.0171 15.8083 15.5161 16.198 15.1265L12.58 11.5085L12.1904 9.50474L8.96205 7.55661L8.07147 8.44719L7.1809 9.33776L9.12903 12.5661L11.0772 13.0114ZM21.9867 18.8558L18.4244 22.4181L23.7122 27.7059C24.7141 28.7078 26.2726 28.7078 27.2745 27.7059C28.2764 26.704 28.2764 25.1455 27.2745 24.1436L21.9867 18.8558ZM26.3283 15.7388C28.1651 14.0689 28.4434 12.1765 28.0538 10.618C28.0538 10.5066 27.9981 10.3953 27.8868 10.284L27.5528 10.0057C27.4972 9.95003 27.3858 9.89437 27.3302 9.95003C27.2188 9.95003 27.1632 10.0057 27.1075 10.0614L24.9924 12.7887C24.9368 12.8444 24.8254 12.9001 24.7141 12.9001L23.9349 12.9557C23.8792 12.9557 23.8235 12.9557 23.7679 12.9001L22.265 11.6199C22.2094 11.5642 22.1537 11.5085 22.1537 11.3972L22.0424 10.7293C22.0424 10.6736 22.0424 10.5623 22.098 10.5066L24.1018 7.83491C24.2132 7.72359 24.2132 7.55661 24.1018 7.44529L23.6009 7.05566C23.5452 7 23.4339 7 23.2669 7C21.8754 7.2783 19.5933 8.61417 18.981 10.451C18.4801 12.0651 18.6471 13.1784 18.6471 13.1784C18.6471 14.0689 18.3688 14.9595 17.9791 15.3491L7.68185 25.2568L7.62619 25.3125C6.79127 26.1474 6.79127 27.5389 7.62619 28.3738C8.4611 29.2087 9.85262 29.2087 10.6875 28.3738C10.7432 28.3182 10.7432 28.3182 10.7989 28.2625L20.7622 17.5199C21.9311 16.4067 24.3801 17.5199 26.3283 15.7388Z" fill="white"/>
</svg>
