<svg width="36" height="36" viewBox="0 0 36 36" fill="none" xmlns="http://www.w3.org/2000/svg">
<rect width="36" height="36" fill="#D02D2F"/>
<path d="M18.1438 13.108C15.4232 13.108 13.2123 15.319 13.2123 18.0396C13.2123 20.7602 15.419 22.9712 18.1438 22.9712C20.8686 22.9712 23.0754 20.7602 23.0754 18.0396C23.0796 15.319 20.8728 13.108 18.1438 13.108ZM10.9676 16.932C10.2137 16.932 9.60307 17.5426 9.60307 18.2965C9.60307 19.0503 10.2137 19.661 10.9676 19.661C11.7214 19.661 12.3321 19.0503 12.3321 18.2965C12.3321 17.5426 11.7214 16.932 10.9676 16.932ZM25.3243 16.932C24.5704 16.932 23.9598 17.5426 23.9598 18.2965C23.9598 19.0503 24.5704 19.661 25.3243 19.661C26.0781 19.661 26.6888 19.0503 26.6888 18.2965C26.6888 17.5426 26.0781 16.932 25.3243 16.932ZM28.7397 10H7.24889C6.01074 10 5 11.0107 5 12.2489V23.8345C5 25.0726 6.01074 26.0834 7.24889 26.0834H28.7313C29.9695 26.0834 30.9802 25.0726 30.9802 23.8345V12.2489C30.9886 11.0107 29.9779 10 28.7397 10ZM29.0556 21.4045C28.8787 21.3582 28.6934 21.3371 28.4997 21.3371C27.2405 21.3371 26.2213 22.3563 26.2213 23.6155C26.2213 23.8092 26.2508 23.9945 26.2887 24.1714H9.56096C9.59044 24.0324 9.60307 23.8935 9.60307 23.7503C9.60307 22.4911 8.58391 21.4719 7.3247 21.4719C7.18572 21.4719 7.05517 21.4845 6.92462 21.5056V14.5862C7.05517 14.6073 7.18572 14.6199 7.3247 14.6199C8.58391 14.6199 9.60307 13.6008 9.60307 12.3415C9.60307 12.1941 9.59044 12.0594 9.56096 11.9204H26.2382C26.2255 12.0088 26.2171 12.1057 26.2171 12.2026C26.2171 13.4618 27.2363 14.4809 28.4955 14.4809C28.6892 14.4809 28.8745 14.4515 29.0556 14.4136V21.4045Z" fill="white"/>
</svg>
