<svg width="181" height="34" viewBox="0 0 181 34" fill="none" xmlns="http://www.w3.org/2000/svg">
<path d="M16.6416 33.2832C25.8325 33.2832 33.2832 25.8325 33.2832 16.6416C33.2832 7.4507 25.8325 0 16.6416 0C7.4507 0 0 7.4507 0 16.6416C0 25.8325 7.4507 33.2832 16.6416 33.2832Z" fill="#303030"/>
<path d="M17.8503 24.358V16.6415H19.9886L20.2675 13.9454H17.8503V12.6438C17.8503 11.9931 17.9433 11.5282 18.873 11.5282H20.1746V8.92505H18.0362C15.4331 8.92505 14.5964 10.2266 14.5964 12.3649V13.9454H13.0159V16.6415H14.5964V24.358H17.8503Z" fill="white"/>
<path d="M65.7297 33.2832C74.9206 33.2832 82.3713 25.8325 82.3713 16.6416C82.3713 7.4507 74.9206 0 65.7297 0C56.5388 0 49.0881 7.4507 49.0881 16.6416C49.0881 25.8325 56.5388 33.2832 65.7297 33.2832Z" fill="#303030"/>
<path d="M62.8474 16.6416C62.8474 15.0611 64.149 13.7595 65.7295 13.7595C67.31 13.7595 68.6116 15.0611 68.6116 16.6416C68.6116 18.222 67.31 19.5236 65.7295 19.5236C64.149 19.5236 62.8474 18.222 62.8474 16.6416ZM61.3599 16.6416C61.3599 19.0588 63.3123 21.0111 65.7295 21.0111C68.1467 21.0111 70.0991 19.0588 70.0991 16.6416C70.0991 14.2243 68.1467 12.272 65.7295 12.272C63.3123 12.272 61.3599 14.2243 61.3599 16.6416ZM69.2624 12.086C69.2624 12.6439 69.7272 13.1087 70.285 13.1087C70.8428 13.1087 71.3077 12.6439 71.3077 12.086C71.3077 11.5282 70.8428 11.0634 70.285 11.0634C69.7272 11.0634 69.2624 11.5282 69.2624 12.086ZM62.2896 23.6143C61.4529 23.6143 60.988 23.4284 60.7091 23.3354C60.3372 23.1495 60.0583 22.9635 59.6865 22.6846C59.4075 22.4057 59.2216 22.1268 59.0357 21.6619C58.9427 21.383 58.7568 20.9182 58.7568 20.0814C58.7568 19.1517 58.6638 18.8728 58.6638 16.6416C58.6638 14.3173 58.6638 14.0384 58.7568 13.2017C58.7568 12.3649 58.9427 11.9001 59.0357 11.6212C59.2216 11.2493 59.4075 10.9704 59.6865 10.5985C59.9654 10.3196 60.2443 10.1337 60.7091 9.94773C60.988 9.85476 61.4529 9.66882 62.2896 9.66882C63.2193 9.66882 63.4982 9.57585 65.7295 9.57585C68.0537 9.57585 68.3327 9.57585 69.1694 9.66882C70.0061 9.66882 70.471 9.85476 70.7499 9.94773C71.1217 10.1337 71.4007 10.3196 71.7725 10.5985C72.0514 10.8774 72.2374 11.1563 72.4233 11.6212C72.5163 11.9001 72.7022 12.3649 72.7022 13.2017C72.7022 14.1314 72.7952 14.4103 72.7952 16.6416C72.7952 18.9658 72.7952 19.2447 72.7022 20.0814C72.7022 20.9182 72.5163 21.383 72.4233 21.6619C72.2374 22.0338 72.0514 22.3127 71.7725 22.6846C71.4936 22.9635 71.2147 23.1495 70.7499 23.3354C70.471 23.4284 70.0061 23.6143 69.1694 23.6143C68.2397 23.6143 67.9608 23.7073 65.7295 23.7073C63.4982 23.7073 63.2193 23.7073 62.2896 23.6143ZM62.1966 8.08833C61.2669 8.08833 60.6162 8.27427 60.1513 8.46021C59.5935 8.64615 59.1286 9.01803 58.6638 9.48288C58.1989 9.94773 57.92 10.4126 57.6411 10.9704C57.4552 11.5282 57.2692 12.179 57.2692 13.0157C57.2692 13.9454 57.1763 14.2243 57.1763 16.5486C57.1763 18.8728 57.1763 19.1517 57.2692 20.0814C57.2692 21.0111 57.4552 21.6619 57.6411 22.1268C57.8271 22.6846 58.1989 23.1495 58.6638 23.6143C59.1286 24.0791 59.5935 24.3581 60.1513 24.637C60.7091 24.8229 61.3599 25.0088 62.1966 25.0088C63.1263 25.0088 63.4052 25.1018 65.7295 25.1018C68.0537 25.1018 68.3327 25.1018 69.2624 25.0088C70.1921 25.0088 70.8428 24.8229 71.3077 24.637C71.8655 24.451 72.3304 24.0791 72.7952 23.6143C73.2601 23.1495 73.539 22.6846 73.8179 22.1268C74.0038 21.569 74.1898 20.9182 74.1898 20.0814C74.1898 19.1517 74.2827 18.8728 74.2827 16.5486C74.2827 14.2243 74.2827 13.9454 74.1898 13.0157C74.1898 12.086 74.0038 11.4352 73.8179 10.9704C73.6319 10.4126 73.2601 9.94773 72.7952 9.48288C72.3304 9.01803 71.8655 8.73912 71.3077 8.46021C70.7499 8.27427 70.0991 8.08833 69.2624 8.08833C68.3327 8.08833 68.0537 7.99536 65.7295 7.99536C63.4052 8.08833 63.1263 8.08833 62.1966 8.08833Z" fill="white"/>
<path d="M114.818 33.2832C124.009 33.2832 131.459 25.8325 131.459 16.6416C131.459 7.4507 124.009 0 114.818 0C105.627 0 98.176 7.4507 98.176 16.6416C98.176 25.8325 105.627 33.2832 114.818 33.2832Z" fill="#303030"/>
<path d="M123.371 13.2016C123.371 13.2016 123.185 11.993 122.72 11.4352C122.07 10.7844 121.326 10.7844 120.954 10.6914C118.537 10.5055 114.911 10.5055 114.911 10.5055C114.911 10.5055 111.285 10.5055 108.868 10.6914C108.496 10.6914 107.752 10.6914 107.101 11.4352C106.544 11.993 106.451 13.2016 106.451 13.2016C106.451 13.2016 106.265 14.5962 106.265 15.9907V17.2923C106.265 18.6868 106.451 20.0814 106.451 20.0814C106.451 20.0814 106.637 21.29 107.101 21.8478C107.752 22.4986 108.589 22.4986 109.054 22.5916C110.448 22.6845 114.911 22.7775 114.911 22.7775C114.911 22.7775 118.537 22.7775 120.954 22.5916C121.326 22.5916 122.07 22.5916 122.72 21.8478C123.278 21.29 123.371 20.0814 123.371 20.0814C123.371 20.0814 123.557 18.6868 123.557 17.2923V15.9907C123.557 14.5962 123.371 13.2016 123.371 13.2016ZM117.142 16.7345L113.051 18.8728V14.0383L117.7 16.4556L117.142 16.7345Z" fill="white"/>
<path d="M163.906 33.2832C173.097 33.2832 180.547 25.8325 180.547 16.6416C180.547 7.4507 173.097 0 163.906 0C154.715 0 147.264 7.4507 147.264 16.6416C147.264 25.8325 154.715 33.2832 163.906 33.2832Z" fill="#303030"/>
<path d="M164.743 23.3355C158.421 23.3355 154.795 19.0589 154.702 11.8073H157.863C157.956 17.1065 160.28 19.3378 162.139 19.8027V11.8073H165.115V16.3628C166.974 16.1768 168.833 14.1315 169.484 11.8073H172.459C172.18 13.0159 171.715 14.1315 171.065 15.0612C170.321 16.0839 169.484 16.9206 168.461 17.4784C169.67 18.0362 170.6 18.873 171.436 19.8956C172.273 20.9183 172.831 22.0339 173.203 23.3355H169.949C169.205 21.1042 167.532 19.4308 165.208 19.2448V23.3355H164.743Z" fill="white"/>
</svg>
