<svg width="22" height="22" viewBox="0 0 22 22" fill="none" xmlns="http://www.w3.org/2000/svg">
<path d="M21.2611 9.73214L21.2616 9.73225C21.396 9.76384 21.4966 9.88589 21.5 10.031V11.9707C21.5 12.1145 21.4023 12.236 21.2671 12.2677L21.2666 12.2679L18.8885 12.8289L18.604 12.896L18.5229 13.1767C18.3595 13.7424 18.1397 14.2795 17.862 14.781L17.7202 15.0372L17.8742 15.2862L19.1569 17.3605C19.157 17.3608 19.1572 17.3611 19.1574 17.3614C19.2327 17.4853 19.2129 17.6401 19.1143 17.7387L17.7396 19.1137C17.641 19.2124 17.4862 19.2321 17.3625 19.1567C17.3622 19.1566 17.362 19.1565 17.3618 19.1563L15.2881 17.8733L15.0389 17.7192L14.7827 17.8611C14.2813 18.1389 13.7444 18.3587 13.1788 18.5222L12.8981 18.6033L12.831 18.8878L12.2702 21.2665L12.27 21.267C12.2382 21.4024 12.1167 21.5 11.9733 21.5H10.0295C9.88606 21.5 9.7645 21.4024 9.7327 21.267L9.73259 21.2665L9.17173 18.8878L9.10467 18.6033L8.82393 18.5222C8.25839 18.3587 7.72149 18.1389 7.22005 17.8611L6.9638 17.7192L6.71469 17.8733L4.64095 19.1563C4.64071 19.1565 4.64046 19.1566 4.64021 19.1568C4.51644 19.2321 4.36172 19.2124 4.26312 19.1137L2.88846 17.7387C2.7898 17.6401 2.77004 17.4851 2.84549 17.3611C2.84562 17.3609 2.84575 17.3607 2.84588 17.3605L4.12608 15.2858L4.28006 15.0363L4.13747 14.7801C3.8602 14.2819 3.64057 13.7453 3.4771 13.1795L3.39599 12.8987L3.11155 12.8316L0.733393 12.2706L0.732936 12.2705C0.597716 12.2387 0.5 12.1172 0.5 11.9735V10.0293C0.5 9.88484 0.597886 9.76571 0.729432 9.73581L0.729435 9.73583L0.733393 9.73489L3.11155 9.17389L3.39599 9.1068L3.4771 8.82603C3.64054 8.26033 3.86027 7.72328 4.138 7.2217L4.27983 6.96555L4.12583 6.71653L2.84313 4.64228C2.84298 4.64202 2.84282 4.64176 2.84266 4.64151C2.76731 4.51758 2.78708 4.36267 2.88571 4.26401L4.26037 2.88901C4.35968 2.78967 4.5168 2.77146 4.63656 2.84542L4.63661 2.84545L6.71234 4.12695L6.96134 4.28067L7.2173 4.13887C7.71874 3.86108 8.25564 3.64131 8.82118 3.47783L9.10192 3.39668L9.16899 3.11224L9.72985 0.733494L9.72995 0.733036C9.76175 0.597597 9.88331 0.5 10.0267 0.5H11.9705C12.1118 0.5 12.2315 0.597763 12.2612 0.727588L12.2612 0.72759L12.2619 0.730743L12.8228 3.10949L12.8898 3.39393L13.1706 3.47508C13.7361 3.63856 14.273 3.85833 14.7745 4.13612L15.0304 4.27792L15.2794 4.1242L17.3535 2.84368C17.3538 2.84355 17.354 2.84342 17.3542 2.84329C17.478 2.7679 17.6328 2.78761 17.7314 2.88626L19.106 4.26126C19.2047 4.35992 19.2244 4.51484 19.1491 4.63877C19.1489 4.63902 19.1488 4.63927 19.1486 4.63952L17.8684 6.71418L17.7148 6.96308L17.8565 7.21895C18.1342 7.72053 18.354 8.25759 18.5174 8.82328L18.5985 9.10404L18.883 9.17114L21.2611 9.73214ZM8.47376 11C8.47376 12.3925 9.60477 13.524 10.9973 13.524C12.3929 13.524 13.5207 12.3921 13.5207 11C13.5207 9.60748 12.3897 8.476 10.9973 8.476C9.60477 8.476 8.47376 9.60748 8.47376 11Z" stroke="#303030"/>
</svg>
