<svg width="19" height="19" viewBox="0 0 19 19" fill="none" xmlns="http://www.w3.org/2000/svg">
<path d="M1 4.32804C1 11.8836 7.1164 18 14.672 18C15.3016 18 15.9312 18 16.5608 17.9101C17.4603 17.8201 18 17.0106 18 16.2011V13.7725C18 12.963 17.4603 12.2434 16.7407 11.9735L13.7725 10.9841C13.0529 10.7143 12.2434 11.164 11.9735 11.9735C11.7037 12.963 10.4444 13.3228 9.72487 12.6032L6.48677 9.27513C5.7672 8.55556 6.12698 7.2963 7.1164 7.02646C7.92593 6.84656 8.37566 6.03704 8.10582 5.22751L7.1164 2.25926C6.84656 1.53968 6.12698 1 5.31746 1H2.88889C1.98942 1 1.26984 1.62963 1.17989 2.43915C1 3.06878 1 3.69841 1 4.32804Z" stroke="white" stroke-miterlimit="133.333" stroke-linejoin="round"/>
</svg>
