<svg width="40" height="40" viewBox="0 0 40 40" fill="none" xmlns="http://www.w3.org/2000/svg">
<rect x="0.5" y="0.5" width="39" height="39" rx="19.5" fill="white" stroke="#303030"/>
<path d="M13.3333 25.7778V23.897C13.3333 23.897 13.3726 23.3368 13.766 23.0167C15.1032 21.8962 18.2497 21.6561 19.9803 21.6561C21.7109 21.6561 24.8574 21.8962 26.1947 23.0167C26.6273 23.3368 26.6666 23.897 26.6666 23.897V25.7778M19.9803 19.3912C21.6716 19.3912 23.0088 17.9907 23.0088 16.31C23.0088 14.5893 21.6322 13.2288 19.9803 13.2288C18.3284 13.2288 16.9518 14.5893 16.9518 16.27C16.9518 17.9907 18.3284 19.3912 19.9803 19.3912Z" stroke="#303030"/>
</svg>
