<svg width="128" height="40" viewBox="0 0 128 40" fill="none" xmlns="http://www.w3.org/2000/svg">
<path d="M66.6501 7.14537H50.4073L44.9695 32.7552H61.1792L62.3563 27.2801H52.72L53.8266 22.0578H60.9305L62.033 16.8438H54.9249L55.845 12.5458H65.5104L66.6501 7.14537Z" fill="#D02D2F"/>
<path d="M88.8861 8.88198L84.9114 13.6773C83.353 12.5956 81.2475 12.0029 79.4114 12.0278C78.0934 12.0443 76.1164 12.6992 76.0377 14.2783C75.9921 15.2482 76.8252 16.1807 78.3753 16.5993L80.8869 17.2998C83.1706 17.9297 85.7486 19.1607 85.7983 22.6878C85.8978 29.8125 79.5275 33.153 73.2069 33.2442C69.3772 33.2981 66.5837 32.3946 64.2959 31.0807L68.2499 26.2563C69.8497 27.1309 72.1044 27.8562 74.384 27.823C76.1454 27.7982 78.4872 27.1474 78.4582 24.9757C78.4291 23.0194 75.4533 22.8163 73.4224 22.0412C70.7325 20.9305 68.598 19.0488 68.4903 16.4377C68.2416 10.2746 74.6368 6.72676 80.2611 6.64801C83.8172 6.60242 86.9174 7.40234 88.8861 8.88198Z" fill="#D02D2F"/>
<path d="M102.203 14.0545C102.203 16.1102 101.469 18.423 98.3774 18.423H96.3258L97.5733 12.5458H99.9938C101.283 12.5458 102.203 12.7987 102.203 14.0545ZM109.514 13.0971C109.514 8.86954 106.244 7.14537 100.62 7.14537H92.1355L86.6978 32.7552H93.2712L95.2192 23.6452H97.9007C106.571 23.6411 109.514 17.7308 109.514 13.0971Z" fill="#D02D2F"/>
<path d="M120.435 22.7624H115.714C115.714 22.7624 120.008 13.4535 120.303 12.5003C120.12 13.4535 120.435 22.7624 120.435 22.7624ZM127.933 32.7552L125.616 7.14537H117.331L103.662 32.7552H110.824L113.252 27.8313H120.767L121.065 32.7552H127.933Z" fill="#D02D2F"/>
<path d="M24.3374 20.0642C24.3374 22.8412 22.0868 25.0917 19.3099 25.0917C16.533 25.0917 14.2825 22.8412 14.2825 20.0642C14.2825 17.2873 16.533 15.0409 19.3099 15.0409C22.0868 15.0409 24.3374 17.2915 24.3374 20.0642ZM33.5551 11.5014L34.6161 6.46565C22.779 5.51653 15.7538 9.8767 15.7538 9.8767C16.8894 6.77235 18.4022 4.43892 19.1027 3.4442L15.2647 0C8.58771 9.39592 8.76593 18.0375 8.76593 18.0375C7.87069 16.9516 7.40649 16.3092 6.65631 15.1238C5.88955 13.9177 5.45021 13.1261 4.91555 11.9697L0 13.5737C5.14765 24.3332 12.3511 28.1836 12.3511 28.1836C9.07678 28.7017 6.35375 28.5856 5.1518 28.4945L4.08248 33.5592C15.2813 34.5622 22.9323 30.1689 22.9323 30.1689C22.2443 32.4402 20.3709 35.3829 19.5835 36.5641L23.4131 40C29.8995 30.9191 29.9368 21.9335 29.9368 21.9335C31.7397 23.9395 33.1945 26.7827 33.7872 28.0427L38.711 26.4346C34.1975 16.4252 26.3392 11.8247 26.3392 11.8247C29.5348 11.2983 32.3324 11.4061 33.5551 11.5014Z" fill="#D02D2F"/>
</svg>
