<svg width="176" height="33" viewBox="0 0 176 33" fill="none" xmlns="http://www.w3.org/2000/svg">
<path d="M16.2085 32.4171C25.1603 32.4171 32.4171 25.1603 32.4171 16.2085C32.4171 7.25681 25.1603 0 16.2085 0C7.25681 0 0 7.25681 0 16.2085C0 25.1603 7.25681 32.4171 16.2085 32.4171Z" fill="white"/>
<path d="M17.3857 23.7247V16.2091H19.4684L19.74 13.5831H17.3857V12.3154C17.3857 11.6815 17.4762 11.2288 18.3818 11.2288H19.6495V8.69336H17.5668C15.0314 8.69336 14.2164 9.96107 14.2164 12.0437V13.5831H12.6771V16.2091H14.2164V23.7247H17.3857Z" fill="#272727"/>
<path d="M64.0192 32.4171C72.971 32.4171 80.2278 25.1603 80.2278 16.2085C80.2278 7.25681 72.971 0 64.0192 0C55.0675 0 47.8107 7.25681 47.8107 16.2085C47.8107 25.1603 55.0675 32.4171 64.0192 32.4171Z" fill="white"/>
<path d="M61.2121 16.2093C61.2121 14.6699 62.4798 13.4022 64.0192 13.4022C65.5585 13.4022 66.8262 14.6699 66.8262 16.2093C66.8262 17.7486 65.5585 19.0164 64.0192 19.0164C62.4798 19.0164 61.2121 17.7486 61.2121 16.2093ZM59.7633 16.2093C59.7633 18.5636 61.6648 20.4652 64.0192 20.4652C66.3735 20.4652 68.275 18.5636 68.275 16.2093C68.275 13.855 66.3735 11.9534 64.0192 11.9534C61.6648 11.9534 59.7633 13.855 59.7633 16.2093ZM67.4601 11.7723C67.4601 12.3156 67.9128 12.7684 68.4561 12.7684C68.9994 12.7684 69.4522 12.3156 69.4522 11.7723C69.4522 11.229 68.9994 10.7763 68.4561 10.7763C67.9128 10.7763 67.4601 11.229 67.4601 11.7723ZM60.6688 23.0006C59.8538 23.0006 59.4011 22.8195 59.1294 22.7289C58.7672 22.5478 58.4956 22.3667 58.1334 22.0951C57.8617 21.8234 57.6806 21.5518 57.4995 21.099C57.409 20.8274 57.2279 20.3746 57.2279 19.5597C57.2279 18.6542 57.1373 18.3825 57.1373 16.2093C57.1373 13.9455 57.1373 13.6739 57.2279 12.8589C57.2279 12.044 57.409 11.5912 57.4995 11.3196C57.6806 10.9574 57.8617 10.6857 58.1334 10.3235C58.405 10.0518 58.6767 9.87075 59.1294 9.68965C59.4011 9.5991 59.8538 9.418 60.6688 9.418C61.5743 9.418 61.846 9.32745 64.0192 9.32745C66.2829 9.32745 66.5546 9.32744 67.3695 9.418C68.1845 9.418 68.6372 9.5991 68.9089 9.68965C69.2711 9.87075 69.5427 10.0518 69.9049 10.3235C70.1766 10.5952 70.3577 10.8668 70.5388 11.3196C70.6294 11.5912 70.8105 12.044 70.8105 12.8589C70.8105 13.7644 70.901 14.0361 70.901 16.2093C70.901 18.4731 70.901 18.7447 70.8105 19.5597C70.8105 20.3746 70.6294 20.8274 70.5388 21.099C70.3577 21.4612 70.1766 21.7329 69.9049 22.0951C69.6333 22.3667 69.3616 22.5478 68.9089 22.7289C68.6372 22.8195 68.1845 23.0006 67.3695 23.0006C66.464 23.0006 66.1924 23.0911 64.0192 23.0911C61.846 23.0911 61.5743 23.0911 60.6688 23.0006ZM60.5782 7.87864C59.6727 7.87864 59.0389 8.05974 58.5861 8.24084C58.0428 8.42194 57.5901 8.78414 57.1373 9.23689C56.6846 9.68965 56.4129 10.1424 56.1413 10.6857C55.9602 11.229 55.7791 11.8629 55.7791 12.6778C55.7791 13.5833 55.6885 13.855 55.6885 16.1187C55.6885 18.3825 55.6885 18.6542 55.7791 19.5597C55.7791 20.4652 55.9602 21.099 56.1413 21.5518C56.3224 22.0951 56.6846 22.5478 57.1373 23.0006C57.5901 23.4533 58.0428 23.725 58.5861 23.9966C59.1294 24.1777 59.7633 24.3588 60.5782 24.3588C61.4838 24.3588 61.7554 24.4494 64.0192 24.4494C66.2829 24.4494 66.5546 24.4494 67.4601 24.3588C68.3656 24.3588 68.9994 24.1777 69.4522 23.9966C69.9955 23.8155 70.4483 23.4533 70.901 23.0006C71.3538 22.5478 71.6254 22.0951 71.8971 21.5518C72.0782 21.0085 72.2593 20.3746 72.2593 19.5597C72.2593 18.6542 72.3498 18.3825 72.3498 16.1187C72.3498 13.855 72.3498 13.5833 72.2593 12.6778C72.2593 11.7723 72.0782 11.1385 71.8971 10.6857C71.716 10.1424 71.3538 9.68965 70.901 9.23689C70.4483 8.78414 69.9955 8.51249 69.4522 8.24084C68.9089 8.05974 68.275 7.87864 67.4601 7.87864C66.5546 7.87864 66.2829 7.78809 64.0192 7.78809C61.7554 7.87864 61.4838 7.87864 60.5782 7.87864Z" fill="#272727"/>
<path d="M111.83 32.4171C120.782 32.4171 128.038 25.1603 128.038 16.2085C128.038 7.25681 120.782 0 111.83 0C102.878 0 95.6213 7.25681 95.6213 16.2085C95.6213 25.1603 102.878 32.4171 111.83 32.4171Z" fill="white"/>
<path d="M120.161 12.8589C120.161 12.8589 119.979 11.6817 119.527 11.1384C118.893 10.5046 118.168 10.5046 117.806 10.414C115.452 10.2329 111.92 10.2329 111.92 10.2329C111.92 10.2329 108.389 10.2329 106.035 10.414C105.672 10.414 104.948 10.414 104.314 11.1384C103.771 11.6817 103.68 12.8589 103.68 12.8589C103.68 12.8589 103.499 14.2171 103.499 15.5754V16.8431C103.499 18.2014 103.68 19.5596 103.68 19.5596C103.68 19.5596 103.861 20.7368 104.314 21.2801C104.948 21.9139 105.763 21.9139 106.216 22.0045C107.574 22.095 111.92 22.1856 111.92 22.1856C111.92 22.1856 115.452 22.1856 117.806 22.0045C118.168 22.0045 118.893 22.0045 119.527 21.2801C120.07 20.7368 120.161 19.5596 120.161 19.5596C120.161 19.5596 120.342 18.2014 120.342 16.8431V15.5754C120.342 14.2171 120.161 12.8589 120.161 12.8589ZM114.094 16.2998L110.109 18.3825V13.6738L114.637 16.0281L114.094 16.2998Z" fill="#272727"/>
<path d="M159.641 32.4171C168.592 32.4171 175.849 25.1603 175.849 16.2085C175.849 7.25681 168.592 0 159.641 0C150.689 0 143.432 7.25681 143.432 16.2085C143.432 25.1603 150.689 32.4171 159.641 32.4171Z" fill="white"/>
<path d="M160.456 22.7283C154.298 22.7283 150.767 18.5629 150.676 11.5H153.755C153.845 16.6614 156.109 18.8346 157.92 19.2873V11.5H160.818V15.937C162.629 15.7559 164.44 13.7638 165.074 11.5H167.971C167.7 12.6772 167.247 13.7638 166.613 14.6693C165.889 15.6653 165.074 16.4803 164.078 17.0236C165.255 17.5669 166.16 18.3818 166.975 19.3779C167.79 20.374 168.334 21.4606 168.696 22.7283H165.526C164.802 20.5551 163.172 18.9251 160.908 18.744V22.7283H160.456Z" fill="#272727"/>
</svg>
