<?xml version="1.0" encoding="utf-8"?><svg xmlns="http://www.w3.org/2000/svg" xmlns:xlink="http://www.w3.org/1999/xlink"><symbol viewBox="0 0 218 71" id="grnt" xmlns="http://www.w3.org/2000/svg"><path d="M0 0h218v71H0z"/><path d="M73.6 23.181c0-.9-.6-1.6-1.6-1.6-1.5 0-3-.2-4.4-.6-1-.3-2.1-.6-3.1-1-1.1-.4-2.3-.9-3.3-1.5-1.2-.7-2.4-1.5-3.6-2.2-.4-.3-.9-.4-1.4-.1-.4.2-.7.5-1.1.7-1.8 1.2-3.6 2.3-5.7 3-1.1.4-2.2.8-3.4 1.1-1.5.4-3 .6-4.6.6-.8 0-1.4.6-1.4 1.4v13.4c0 2.3.3 4.5 1.2 6.6.6 1.5 1.4 2.8 2.4 4 2.3 2.7 5.3 4.5 8.5 6.1 1.3.7 2.6 1.3 3.9 1.9.4.2.8.3 1.2.2.6-.3 1.3-.5 1.9-.9 1.5-.8 3.1-1.6 4.6-2.4 1.7-.9 3.3-2 4.7-3.3 2.1-1.9 3.6-4.1 4.4-6.8.4-1.5.7-3.1.7-4.6v-6.9c.1-2.5.1-4.8.1-7.1zm-16.9 23.6c-6.2 0-11.1-5.1-11.1-11.3 0-6.2 5.1-11.1 11.3-11.1 6.1 0 11.1 5 11.1 11.2 0 6.2-5.1 11.2-11.3 11.2zm3.2-14.9l-4.3 4.3c-.2.2-.3.2-.5 0l-1.5-1.5c-.2-.2-.6-.4-.9-.4-.6-.1-1.2.2-1.4.7-.3.6-.2 1.2.3 1.7l2.7 2.7c.3.3.6.4 1 .4s.8-.2 1.1-.5c1.3-1.3 2.6-2.6 3.9-3.8l1.8-1.8c.4-.5.4-1.2 0-1.7-.6-.8-1.5-.8-2.2-.1zM94.8 28V14.88h7.56v1.42h-5.9V28H94.8zm10.205.24c-.533 0-1.02-.107-1.46-.32a2.66 2.66 0 01-1.02-.94c-.253-.413-.38-.913-.38-1.5 0-1.093.48-1.92 1.44-2.48s2.48-.953 4.56-1.18a4.22 4.22 0 00-.2-1.16 1.696 1.696 0 00-.6-.9c-.293-.227-.7-.34-1.22-.34-.56 0-1.087.107-1.58.32a7.67 7.67 0 00-1.32.68l-.64-1.12c.293-.2.64-.393 1.04-.58.4-.2.833-.36 1.3-.48.467-.133.96-.2 1.48-.2.787 0 1.427.167 1.92.5.507.32.873.78 1.1 1.38.24.6.36 1.307.36 2.12V28h-1.36l-.14-1.16h-.06c-.467.387-.967.72-1.5 1-.533.267-1.107.4-1.72.4zm.46-1.36c.48 0 .927-.107 1.34-.32.427-.213.873-.527 1.34-.94V23c-1.093.133-1.96.307-2.6.52-.627.2-1.08.453-1.36.76s-.42.673-.42 1.1c0 .533.167.92.5 1.16.333.227.733.34 1.2.34zm7.378 5.22V18.28h1.36l.14 1.12h.06c.44-.373.927-.693 1.46-.96.533-.267 1.08-.4 1.64-.4.827 0 1.527.207 2.1.62.573.4 1.007.973 1.3 1.72.293.733.44 1.607.44 2.62 0 1.093-.2 2.033-.6 2.82-.387.787-.9 1.387-1.54 1.8a3.73 3.73 0 01-2.06.62c-.44 0-.887-.1-1.34-.3a6.707 6.707 0 01-1.36-.82l.04 1.7v3.28h-1.64zm4.02-5.24a2.32 2.32 0 001.42-.46c.427-.307.76-.747 1-1.32.24-.587.36-1.28.36-2.08 0-.707-.087-1.327-.26-1.86-.173-.547-.447-.967-.82-1.26-.373-.307-.867-.46-1.48-.46-.4 0-.813.113-1.24.34-.427.213-.88.54-1.36.98v5.1c.453.373.88.64 1.28.8.413.147.78.22 1.1.22zm9.04 1.38c-.533 0-1.02-.107-1.46-.32a2.674 2.674 0 01-1.02-.94c-.253-.413-.38-.913-.38-1.5 0-1.093.48-1.92 1.44-2.48s2.48-.953 4.56-1.18a4.22 4.22 0 00-.2-1.16 1.685 1.685 0 00-.6-.9c-.293-.227-.7-.34-1.22-.34a3.94 3.94 0 00-1.58.32 7.67 7.67 0 00-1.32.68l-.64-1.12c.294-.2.64-.393 1.04-.58.4-.2.834-.36 1.3-.48.467-.133.96-.2 1.48-.2.787 0 1.427.167 1.92.5.507.32.874.78 1.1 1.38.24.6.36 1.307.36 2.12V28h-1.36l-.14-1.16h-.06a8.57 8.57 0 01-1.5 1 3.79 3.79 0 01-1.72.4zm.46-1.36c.48 0 .927-.107 1.34-.32.427-.213.874-.527 1.34-.94V23c-1.093.133-1.96.307-2.6.52-.626.2-1.08.453-1.36.76s-.42.673-.42 1.1c0 .533.167.92.5 1.16.334.227.734.34 1.2.34zm7.379 1.12v-9.72h1.64v3.94h4.68v-3.94h1.64V28h-1.64v-4.32h-4.68V28h-1.64zm13.37 0v-8.38h-3.26v-1.34h8.16v1.34h-3.26V28h-1.64zm7.059 0v-9.72h1.6v4.04c0 .533-.013 1.1-.04 1.7a56.69 56.69 0 01-.12 1.94h.08c.187-.36.394-.74.62-1.14.24-.413.454-.767.64-1.06l3.44-5.48h1.8V28h-1.6v-4.04c0-.52.014-1.08.04-1.68a60.97 60.97 0 01.12-1.96h-.08c-.186.36-.393.747-.62 1.16-.226.4-.44.753-.64 1.06l-3.46 5.46h-1.78zm16.669 0v-3.8h-1.82c-.467 0-.927-.053-1.38-.16-.453-.12-.86-.3-1.22-.54a3.04 3.04 0 01-.88-.96c-.213-.387-.32-.847-.32-1.38 0-.72.167-1.287.5-1.7.347-.427.807-.727 1.38-.9.573-.187 1.22-.28 1.94-.28h3.44V28h-1.64zm-1.52-5.08h1.52v-3.36h-1.52c-.76 0-1.36.133-1.8.4-.427.253-.64.66-.64 1.22 0 .56.213.993.64 1.3.44.293 1.04.44 1.8.44zM164.5 28l3.38-4.62 1.38.5-2.88 4.12h-1.88zM99.175 54.3c-.867 0-1.65-.1-2.35-.3A7.287 7.287 0 0195 53.2a8.002 8.002 0 01-1.425-1.125l1.65-2.325a8.738 8.738 0 001.575 1.125c.567.3 1.183.45 1.85.45.533 0 1-.092 1.4-.275.4-.2.708-.483.925-.85.233-.367.35-.817.35-1.35 0-.8-.233-1.408-.7-1.825-.467-.417-1.067-.625-1.8-.625-.45 0-.833.058-1.15.175-.317.117-.717.325-1.2.625l-1.65-1.05.45-8.025h9v3.1H98.45l-.275 2.975c.317-.133.608-.225.875-.275.267-.067.567-.1.9-.1.917 0 1.758.175 2.525.525a4.1 4.1 0 011.825 1.625c.467.733.7 1.658.7 2.775 0 1.183-.275 2.192-.825 3.025a5.255 5.255 0 01-2.125 1.875 6.44 6.44 0 01-2.875.65zm13.688-.025c-.433 0-.792-.025-1.075-.075a6.567 6.567 0 01-.825-.15l.65-3.325c.117.017.225.042.325.075.117.017.242.025.375.025.283 0 .542-.075.775-.225.233-.167.458-.525.675-1.075.233-.55.483-1.408.75-2.575.35-1.517.658-3.042.925-4.575.283-1.55.558-3.108.825-4.675h9.475V54h-3.7V40.8h-2.95a82.02 82.02 0 01-.55 3.325c-.2 1.067-.417 2.142-.65 3.225-.367 1.817-.775 3.225-1.225 4.225-.433 1-.958 1.7-1.575 2.1-.617.4-1.358.6-2.225.6zM129.569 54V37.7h10.2v3.1h-6.525v3.275h5.55v3.075h-5.55v3.75h6.775V54h-10.45zm16.871 0V40.8h-4.475v-3.1h12.65v3.1h-4.475V54h-3.7z"/></symbol><symbol viewBox="0 0 56 57" id="ic-about1" xmlns="http://www.w3.org/2000/svg"><path d="M41.054 15.02c-.224-.112-.504-.112-.784 0L25.1 21.236a7.2 7.2 0 00-2.8 1.848c-.783.784-1.399 1.735-1.847 2.8L14.24 41.001c-.112.28-.112.56 0 .784.111.28.335.448.56.56.223.112.503.112.783 0l15.226-6.215c1.064-.392 1.96-1.008 2.8-1.848.783-.784 1.399-1.736 1.847-2.8l6.213-15.175c.112-.28.112-.56 0-.784a1.75 1.75 0 00-.615-.504zm-10.86 15.79c-.56.56-1.4.897-2.184.897a3.142 3.142 0 01-1.735-.504 3.054 3.054 0 01-1.12-1.4 3.242 3.242 0 01-.168-1.792c.113-.616.392-1.176.84-1.568a3.083 3.083 0 011.568-.84 3.24 3.24 0 011.791.168c.56.224 1.064.616 1.4 1.12.335.504.503 1.12.503 1.736a2.69 2.69 0 01-.895 2.184zm21.104-17.75A28.028 28.028 0 0038.702 2.757 27.584 27.584 0 0022.524 1.19c-5.43 1.064-10.412 3.752-14.33 7.672-3.919 3.92-6.606 8.903-7.67 14.334a27.942 27.942 0 001.624 16.127 28.033 28.033 0 0010.3 12.6c4.59 3.08 10.02 4.703 15.562 4.703 7.446 0 14.555-2.968 19.817-8.175C53.033 43.186 56 36.075 56 28.627c0-5.543-1.623-10.975-4.702-15.567zm-3.919 28.502c-2.519 3.864-6.157 6.832-10.468 8.623-4.254 1.792-8.957 2.24-13.49 1.344a23.245 23.245 0 01-11.925-6.383 23.478 23.478 0 01-6.381-11.927c-.896-4.592-.392-9.24 1.343-13.495a23.744 23.744 0 018.565-10.471 23.243 23.243 0 0112.931-3.92c6.214 0 12.092 2.464 16.514 6.831a23.352 23.352 0 016.83 16.52c.056 4.535-1.344 9.07-3.919 12.878z"/></symbol><symbol viewBox="0 0 65 47" id="ic-about2" xmlns="http://www.w3.org/2000/svg"><path d="M62.327 23.179c-.044-.203-.096-.323-.133-.428a3.719 3.719 0 00-.26-.517c-.349-.615-.905-1.44-1.677-2.482a68.054 68.054 0 00-4.505-5.467c-1.789-1.942-3.77-3.861-5.789-5.301-2.857-2.055-5.633-3.644-8.475-4.717-2.843-1.08-5.752-1.642-8.795-1.642-3.042 0-5.952.562-8.794 1.642-2.843 1.08-5.618 2.67-8.475 4.71-3.006 2.159-5.96 5.36-8.246 8.135a56.52 56.52 0 00-2.79 3.667c-.349.503-.624.93-.839 1.29-.111.18-.2.345-.29.532-.044.09-.088.188-.133.323-.022.067-.044.15-.074.255-.022.105-.045.24-.052.442 0 .203.03.338.052.443.044.202.096.322.134.427.081.203.163.352.26.518.348.614.905 1.44 1.677 2.49a69.382 69.382 0 004.504 5.473c1.789 1.942 3.77 3.862 5.79 5.302 2.856 2.04 5.632 3.629 8.475 4.709 2.842 1.08 5.751 1.642 8.794 1.642s5.952-.562 8.794-1.642c2.843-1.08 5.619-2.67 8.476-4.71 3.005-2.159 5.96-5.36 8.245-8.135a59.346 59.346 0 002.79-3.667c.35-.503.624-.93.84-1.29.11-.18.2-.345.289-.532.044-.09.089-.188.133-.33.022-.068.045-.15.074-.255a2.48 2.48 0 00.052-.443c0-.202-.03-.337-.052-.442z"/><path d="M38.937 22.468a3.776 3.776 0 01-3.525-1.223 3.776 3.776 0 01-.75-3.656l1.631-4.971a11.579 11.579 0 00-15.19 11.008A11.579 11.579 0 0032.69 35.21c6.404 0 11.586-5.194 11.586-11.586 0-.723-.079-1.42-.197-2.104l-5.142.947z"/></symbol><symbol viewBox="0 0 61 62" id="ic-about3" xmlns="http://www.w3.org/2000/svg"><path d="M60.3 31.2c0 16.7-13.5 30.1-30.1 30.1S0 47.8 0 31.2 13.5 1 30.1 1c1.7 0 3 1.3 3 3s-1.3 3-3 3C16.8 7.1 6 17.9 6 31.2c0 13.3 10.8 24.1 24.1 24.1s24.1-10.8 24.1-24.1c0-1.7 1.3-3 3-3s3.1 1.3 3.1 3zm-30.2-9.1c1.7 0 3-1.3 3-3s-1.3-3-3-3c-8.3 0-15.1 6.7-15.1 15.1 0 8.4 6.7 15.1 15.1 15.1 8.4 0 15.1-6.7 15.1-15.1 0-1.7-1.3-3-3-3s-3 1.3-3 3c0 5-4 9-9 9s-9-4-9-9 4-9.1 8.9-9.1zM28 33.3c1.2 1.2 3.1 1.2 4.3 0l11.2-11.2h7.8c.8 0 1.6-.3 2.1-.9l6-6c.7-.7 1-1.7.9-2.6-.2-1-.8-1.8-1.6-2.2l-5.1-2.6L51 2.7c-.4-.9-1.3-1.5-2.2-1.7-1-.2-1.9.2-2.6.8l-6 6c-.6.6-.9 1.4-.9 2.2v7.8L28 29c-1.2 1.2-1.2 3.1 0 4.3z"/></symbol><symbol viewBox="0 0 61 63" id="ic-about4" xmlns="http://www.w3.org/2000/svg"><path fill-rule="evenodd" clip-rule="evenodd" d="M17.8 35.6c6.1-1.2 12.6-.9 17.9 2.2.7.4 1.4 1 2 1.7 1.2 1.4 1.9 3.1 1.9 4.8.6-.4 1.3-.9 1.9-1.3l5.9-4.5c3-2.2 7.3-2.2 10.2 0 2.7 2.1 3.8 5.8 1.9 8.9-1.4 2.2-3.5 5.3-5.6 7.3-2.2 2-5.2 3.7-7.5 4.8-2.8 1.4-5.9 2.1-8.8 2.6-6 1-12.3.8-18.3-.4-3.1-.6-6.2-1-9.4-1H2.5c-1.4 0-2.5-1.1-2.5-2.5s1.1-2.5 2.5-2.5h7.4c3.5 0 7 .4 10.4 1.1 5.4 1.1 11.1 1.2 16.5.4 2.7-.4 5.2-1.1 7.5-2.2 2.2-1.1 4.7-2.5 6.3-4 1.6-1.5 3.4-4.1 4.8-6.3.4-.7.4-1.6-.7-2.4-1.2-.9-3.1-.9-4.3 0l-5.9 4.5c-2.4 1.8-5.3 3.7-8.9 4.3-.4.1-.7.1-1.1.2-.2 0-.4.1-.6.1-1.8.2-4 .2-6.3 0-1.3-.1-2.3-1.3-2.2-2.7.1-1.3 1.3-2.3 2.7-2.2 2.1.2 3.9.2 5.5 0h.1c.1 0 .2-.1.3-.2 1-.9 1.1-2.4.2-3.5-.2-.3-.5-.5-.9-.7-3.9-2.3-9-2.7-14.5-1.6C13.4 41.5 8 44 4 46.8c-1.1.8-2.6.5-3.4-.6-.9-1.2-.7-2.7.4-3.5 4.6-3.2 10.6-6 16.8-7.1z"/><path d="M32.5.6l3.3 6.7c.2.3.5.5.8.6l7.4 1c.9.1 1.2 1.2.6 1.8L39.2 16c-.3.2-.4.6-.3.9l1.3 7.4c.1.9-.8 1.5-1.5 1.1L32 21.9c-.3-.2-.7-.2-1 0l-6.6 3.5c-.8.4-1.7-.3-1.5-1.1l1.3-7.4c.1-.3-.1-.7-.3-.9l-5.3-5.2c-.6-.6-.3-1.7.6-1.8l7.4-1.1c.3-.1.6-.3.8-.6L30.7.6c.3-.8 1.4-.8 1.8 0zM10.8 16.4l1.9 3.8c.1.2.3.3.5.3l4.2.6c.5.1.7.7.3 1l-3.1 3c-.1.1-.2.3-.2.5l.7 4.2c.1.5-.4.9-.9.6l-3.8-2c-.2-.1-.4-.1-.6 0l-3.8 2c-.4.2-1-.1-.9-.6l.9-4c0-.2 0-.4-.2-.5l-3.1-3c-.4-.4-.2-1 .3-1l4.2-.6c.2 0 .4-.2.5-.3l1.9-3.8c.3-.7 1-.7 1.2-.2zm42.5 0l1.9 3.8c.1.2.3.3.5.3l4.2.6c.5.1.7.7.3 1l-3.1 3c-.1.1-.2.3-.2.5l.7 4.2c.1.5-.4.9-.9.6l-3.8-2c-.2-.1-.4-.1-.6 0l-3.8 2c-.4.2-1-.1-.9-.6l.7-4.2c0-.2 0-.4-.2-.5l-3.1-3c-.4-.4-.2-1 .3-1l4.2-.6c.2 0 .4-.2.5-.3l1.9-3.8c.6-.5 1.2-.5 1.4 0z"/></symbol><symbol viewBox="0 0 9 20" id="ic-arrow" xmlns="http://www.w3.org/2000/svg"><path d="M2 2l5 8-5 8"/></symbol><symbol viewBox="0 0 7 9" id="ic-arrow2" xmlns="http://www.w3.org/2000/svg"><path d="M.557 7.942L4.266 4.5.557 1.058 1.7 0l4.858 4.5L1.7 9 .557 7.942z"/></symbol><symbol viewBox="0 0 64 39" id="ic-btn" xmlns="http://www.w3.org/2000/svg"><path d="M51.913 6.492l-4.759-4.835A5.576 5.576 0 0043.194 0H20.518a5.6 5.6 0 00-3.96 1.657L11.8 6.492H0v25.967h6.4c1.759 0 3.183-1.446 3.19-3.217h.913l8.455 7.76c3.087 2.55 7.383 2.607 10.558.381C30.764 38.48 32.116 39 33.628 39c1.824 0 3.527-.748 4.88-2.438 2.207.886 4.815.26 6.398-1.706l2.624-3.282a5.538 5.538 0 001.088-2.34h5.791c.008 1.78 1.44 3.217 3.192 3.217H64V6.491H51.913zM4.8 29.209c-.88 0-1.6-.73-1.6-1.625 0-.893.72-1.625 1.6-1.625.88 0 1.6.732 1.6 1.625 0 .902-.72 1.625-1.6 1.625zm38.995-.698l-2.607 3.266a.8.8 0 01-1.128.122l-2.392-1.966-3 3.705c-.6.739-1.503.487-1.8.243l-3.679-3.201-1.56 1.95c-1.391 1.739-3.919 1.999-5.527.666l-9.726-8.937H9.598v-13h4.191l6.168-6.256c.2-.082.368-.155.567-.236h5.672l-3.872 3.607c-2.935 2.73-3.111 7.345-.44 10.287 1.48 1.64 6.12 4.184 10.151.447l.824-.764 10.815 8.921c.344.276.392.796.12 1.146zm10.6-4.144h-6.92a5.407 5.407 0 00-.768-.78l-10.27-8.474 1.247-1.154c.648-.61.704-1.633.096-2.291l-1.088-1.187a1.592 1.592 0 00-2.255-.105l-5.52 5.143c-.951.885-2.567.958-3.455 0a2.442 2.442 0 01.12-3.445l6.559-6.102a3.93 3.93 0 012.704-1.065l8.359-.032a.75.75 0 01.551.236l6.168 6.256h4.471v13zm4.799 4.842c-.88 0-1.6-.73-1.6-1.625 0-.893.72-1.625 1.6-1.625.88 0 1.6.732 1.6 1.625 0 .902-.72 1.625-1.6 1.625z"/></symbol><symbol viewBox="0 0 29 23" id="ic-btn2" xmlns="http://www.w3.org/2000/svg"><path d="M28 1H1m27 6H1m12 6H1m12 6H1M26 16.748L22.502 13M19 16.748L22.498 13v9"/></symbol><symbol viewBox="0 0 17 17" id="ic-calendar" xmlns="http://www.w3.org/2000/svg"><g opacity=".5"><path d="M13.962 16.793c-.682.156-1.495.207-2.435.207H5.315c-.94 0-1.753-.05-2.435-.207-.692-.159-1.301-.437-1.778-.928-.477-.49-.747-1.118-.9-1.83l13.76 2.758zm0 0c.693-.159 1.301-.437 1.778-.928m-1.778.928l1.778-.928m0 0c.477-.49.747-1.118.901-1.83l-.9 1.83zm.412-10.952c.14.65.19 1.446.19 2.403v4.21c0 .957-.05 1.752-.19 2.403-.141.656-.38 1.185-.77 1.588-.39.401-.9.644-1.531.788-.628.144-1.396.195-2.324.195H5.315c-.928 0-1.696-.05-2.324-.195-.63-.144-1.14-.387-1.53-.788-.391-.403-.63-.932-.771-1.588-.14-.65-.19-1.446-.19-2.403v-4.21c0-.957.05-1.752.19-2.403.141-.656.38-1.185.77-1.588.39-.401.9-.644 1.531-.788.628-.144 1.396-.195 2.324-.195h6.212c.928 0 1.696.05 2.324.195.63.144 1.14.387 1.53.788.391.403.63.932.771 1.588zM4.212 1v3.368M12.633 1v3.368M4.21 8.579h8.422"/></g></symbol><symbol viewBox="0 0 21 21" id="ic-chat" xmlns="http://www.w3.org/2000/svg"><path d="M15.25 2.271A9.447 9.447 0 0010.498 1 9.498 9.498 0 001 10.499c0 1.518.356 2.955.992 4.229.168.339.225.726.128 1.091l-.567 2.115a1.236 1.236 0 001.513 1.513l2.115-.567a1.547 1.547 0 011.091.128 9.447 9.447 0 004.23.992A9.498 9.498 0 0020 10.501c0-1.73-.462-3.351-1.271-4.75"/><path d="M6.816 9.806a.5.5 0 000 1h.009a.5.5 0 000-1h-.009zm3.674 0a.5.5 0 100 1h.008a.5.5 0 100-1h-.008zm3.685 0a.5.5 0 000 1h.009a.5.5 0 000-1h-.009z"/></symbol><symbol viewBox="0 0 26 26" id="ic-donload" xmlns="http://www.w3.org/2000/svg"><path d="M13 7v8m0 0l3-3.43M13 15l-3-3.43M18 18H8M1 13C1 7.344 1 4.514 2.757 2.757 4.514 1 7.344 1 13 1c5.656 0 8.486 0 10.243 1.757C25 4.514 25 7.344 25 13c0 5.656 0 8.486-1.757 10.243C21.486 25 18.656 25 13 25c-5.656 0-8.486 0-10.243-1.757C1 21.486 1 18.66 1 13z"/></symbol><symbol viewBox="0 0 43 43" id="ic-down1" xmlns="http://www.w3.org/2000/svg"><path d="M0 0h43v43H0z"/><path d="M19.783 32.78c.425.429 1.217.194 1.217-.386V11.405c-1.299-1.204-2.71-1.716-4.181-2.018a20.066 20.066 0 00-6.33-.242A2.771 2.771 0 008 11.892v15.813c0 1.708 1.545 3.056 3.339 3.002 1.486-.047 3.545.004 5.414.422 1.423.317 2.328.94 3.03 1.65zm3.434 0c-.425.429-1.217.194-1.217-.386v-20.99c1.298-1.2 2.714-1.715 4.18-2.014a19.99 19.99 0 016.332-.245A2.774 2.774 0 0135 11.89v15.813c0 1.71-1.544 3.057-3.338 3.003-1.485-.047-3.544.004-5.412.422-1.423.317-2.328.94-3.033 1.65z"/></symbol><symbol viewBox="0 0 43 43" id="ic-down2" xmlns="http://www.w3.org/2000/svg"><path d="M0 0h43v43H0z"/><path fill-rule="evenodd" clip-rule="evenodd" d="M25.157 16.053c.497.514.676 1.239.591 1.934-.123 1.015-.416 1.964-.76 2.922a493.19 493.19 0 01-1.114 3.069c-.598 1.634-1.203 3.266-1.797 4.904a5.355 5.355 0 00-.296 1.271c-.045.468.29.699.712.49.338-.165.666-.393.932-.659.432-.439.864-.878 1.284-1.326.21-.224.419-.452.62-.683.163-.185.328-.461.553-.572.422-.211.747.31.672.673-.071.348-.312.657-.533.933l-.016.02-.058.074c-.744.946-1.557 1.856-2.483 2.626-.91.754-1.917 1.398-3.025 1.814-.36.136-.73.247-1.105.331-.724.166-1.527.153-2.267.046a1.654 1.654 0 01-1.264-.93c-.4-.877-.12-1.956.084-2.85.254-1.092.634-2.132 1.024-3.179l.029-.078.016-.039.03-.078.029-.078c.451-1.212.913-2.418 1.377-3.627.423-1.102.848-2.2 1.267-3.302.033-.085.069-.17.104-.25l.013-.033c.091-.214.186-.429.218-.65.081-.536-.302-1.01-.838-.702-.926.533-1.621 1.326-2.307 2.126l-.085.097c-.214.247-.428.497-.65.735-.217.237-.477.53-.85.256-.4-.289-.283-.66-.056-.971 1.26-1.742 2.775-3.37 4.75-4.29.826-.384 1.98-.778 3.058-.79.812-.014 1.582.188 2.141.766zm1.244-7.852C27.441 8.604 28 9.508 28 10.778c0 2.292-2.473 3.858-4.542 2.877-1.07-.507-1.59-1.71-1.33-3.075.358-1.888 2.486-3.075 4.273-2.379z"/></symbol><symbol viewBox="0 0 43 43" id="ic-down3" xmlns="http://www.w3.org/2000/svg"><path d="M0 0h43v43H0z"/><path d="M25.253 22.048a3.77 3.77 0 11-7.54 0 3.77 3.77 0 017.54 0zm6.913-6.422l.796-3.777c-8.878-.712-14.147 2.559-14.147 2.559a21.42 21.42 0 012.512-4.825L18.449 7c-5.008 7.047-4.875 13.528-4.875 13.528a18.433 18.433 0 01-1.582-2.185c-.575-.905-.904-1.498-1.305-2.366L7 17.18c3.86 8.07 9.263 10.958 9.263 10.958a23.884 23.884 0 01-5.4.233l-.801 3.798c8.399.753 14.137-2.542 14.137-2.542-.516 1.703-1.92 3.91-2.511 4.796L24.56 37c4.865-6.81 4.893-13.55 4.893-13.55 1.352 1.505 2.443 3.637 2.887 4.582l3.693-1.206c-3.385-7.507-9.279-10.958-9.279-10.958a23.514 23.514 0 015.412-.242z"/></symbol><symbol viewBox="0 0 43 43" id="ic-down4" xmlns="http://www.w3.org/2000/svg"><path d="M0 0h43v43H0z"/><path d="M35 15.939v14.166L23.165 36V21.834L35 15.939zm-13.024 3.85l11.788-5.894L21.976 8l-11.74 5.895 11.74 5.895zm-1.188 2.045L9 15.939v14.166L20.788 36V21.834z"/></symbol><symbol viewBox="0 0 43 43" id="ic-down5" xmlns="http://www.w3.org/2000/svg"><path d="M0 0h43v43H0z"/><path d="M21.763 11.544c-3.9 0-7.089 3.19-7.089 7.089 0 3.899 3.19 7.088 7.089 7.088 3.898 0 7.088-3.19 7.088-7.088 0-3.899-3.19-7.089-7.088-7.089zm11.873 19.583l-3.101-6.469a10.773 10.773 0 001.86-6.025C32.396 12.785 27.612 8 21.764 8S11.13 12.785 11.13 18.633c0 2.304.709 4.342 1.95 6.114l-3.014 6.38c-.088.265-.088.62 0 .797.09.177.443.443.71.443l4.164.266 2.835 3.101a.957.957 0 00.62.266h.178c.266 0 .531-.266.709-.532l2.57-5.316 2.569 5.316c.088.266.354.443.709.532h.177a.804.804 0 00.62-.266l2.836-3.101 4.164-.266c.266 0 .532-.177.71-.443.176-.266.088-.532 0-.797zm-11.873-3.633c-4.874 0-8.861-3.988-8.861-8.861 0-4.873 3.987-8.86 8.86-8.86 4.874 0 8.861 3.986 8.861 8.86 0 4.873-3.987 8.86-8.86 8.86z"/></symbol><symbol viewBox="0 0 21 25" id="ic-file" xmlns="http://www.w3.org/2000/svg"><path d="M20 8.667V19.91c0 1.43 0 2.146-.297 2.695-.26.479-.676.87-1.185 1.115-.582.28-1.34.28-2.862.28H5.344c-1.519 0-2.28 0-2.862-.28a2.657 2.657 0 01-1.185-1.115C1 22.056 1 21.343 1 19.91V5.09c0-1.43 0-2.147.297-2.695.26-.479.676-.87 1.185-1.115C3.064 1 3.822 1 5.344 1h6.514M20 8.667L11.858 1M20 8.667h-6.787c-.749 0-1.355-.572-1.355-1.277V1"/></symbol><symbol viewBox="0 0 45 45" id="ic-hd1" xmlns="http://www.w3.org/2000/svg"><rect x=".5" y=".5" width="44" height="44" rx="22"/><path d="M27.25 14.271A9.448 9.448 0 0022.498 13 9.498 9.498 0 0013 22.499c0 1.518.356 2.955.992 4.229.168.339.225.726.128 1.091l-.567 2.115a1.236 1.236 0 001.513 1.513l2.115-.567a1.547 1.547 0 011.091.128 9.447 9.447 0 004.23.992A9.498 9.498 0 0032 22.501c0-1.73-.462-3.351-1.271-4.75"/><path d="M18.816 21.806a.5.5 0 100 1h.008a.5.5 0 100-1h-.008zm3.674 0a.5.5 0 100 1h.009a.5.5 0 000-1h-.009zm3.685 0a.5.5 0 100 1h.008a.5.5 0 100-1h-.008z"/></symbol><symbol viewBox="0 0 45 45" id="ic-hd2" xmlns="http://www.w3.org/2000/svg"><rect x=".5" y=".5" width="44" height="44" rx="22"/><path d="M15 29v-2.116s.044-.63.487-.99c1.504-1.26 5.044-1.53 6.99-1.53 1.948 0 5.488.27 6.992 1.53.487.36.531.99.531.99V29m-7.522-7.185c1.902 0 3.407-1.576 3.407-3.466 0-1.936-1.549-3.467-3.407-3.467-1.859 0-3.407 1.53-3.407 3.422 0 1.936 1.548 3.511 3.407 3.511z"/></symbol><symbol viewBox="0 0 45 45" id="ic-hd3" xmlns="http://www.w3.org/2000/svg"><rect x=".5" y=".5" width="44" height="44" rx="22"/><path d="M21.5 28a6.5 6.5 0 100-13 6.5 6.5 0 000 13zM26 27l4 4"/></symbol><symbol viewBox="0 0 18 17" id="ic-home" xmlns="http://www.w3.org/2000/svg"><path d="M4.429 16H3a2 2 0 01-2-2V7.793a2 2 0 01.83-1.622l6-4.327a2 2 0 012.34 0l6 4.327A2 2 0 0117 7.793V14a2 2 0 01-2 2h-1.429"/><rect x="7" y="8" width="4" height="8" rx="2"/></symbol><symbol viewBox="0 0 19 14" id="ic-mail" xmlns="http://www.w3.org/2000/svg"><path d="M17.161 13.895H1.84C.859 13.895 0 13.01 0 12V2.788C0 1.778.858.895 1.839.895H17.16c.98 0 1.839.883 1.839 1.893V12c0 1.01-.858 1.894-1.839 1.894z"/><path d="M16 3.895l-6.458 5-6.542-5"/></symbol><symbol viewBox="0 0 16 22" id="ic-mp" xmlns="http://www.w3.org/2000/svg"><path d="M8 10a2 2 0 100-4 2 2 0 000 4z"/><path d="M14.9 8.9c.1-.3.1-.6.1-.9 0-3.9-3.1-7-7-7S1 4.1 1 8c0 .3 0 .6.1.9C1.7 14.7 8 21 8 21s6.3-6.3 6.9-12.1z"/></symbol><symbol viewBox="0 0 36 36" id="ic-mp-min1" xmlns="http://www.w3.org/2000/svg"><path d="M0 0h36v36H0z"/><path d="M9 18.595v2.414C9 22.667 13.036 24 18.009 24c4.973 0 9.009-1.333 9.009-2.991v-2.414c-1.91 1.585-5.477 2.414-9.009 2.414S10.946 20.18 9 18.595zM18.009 12C13.036 12 9 13.694 9 15.748c0 2.054 4.036 3.748 9.009 3.748 4.973 0 9.009-1.694 9.009-3.748 0-2.054-4-3.748-9.009-3.748z"/></symbol><symbol viewBox="0 0 36 36" id="ic-mp-min2" xmlns="http://www.w3.org/2000/svg"><path d="M0 0h36v36H0z"/><path d="M6 25.23v1.908C6 28.744 9.867 30 14.638 30c4.77 0 8.637-1.306 8.637-2.862v-1.909c-1.858 1.306-5.273 1.909-8.637 1.909-3.365 0-6.78-.603-8.638-1.909zm14.362-12.455c4.771 0 8.638-1.306 8.638-2.862C29 8.356 25.133 7 20.362 7c-4.77 0-8.587 1.306-8.587 2.862 0 1.557 3.867 2.913 8.587 2.913zM6 20.51v2.31c0 1.607 3.867 2.862 8.638 2.862 4.77 0 8.637-1.306 8.637-2.862v-2.31c-1.858 1.506-5.273 2.31-8.637 2.31-3.365 0-6.78-.804-8.638-2.31zm18.681.502C27.242 20.509 29 19.605 29 18.5v-1.908c-1.055.753-2.561 1.255-4.319 1.556v2.863zm-10.043-6.83C9.867 14.181 6 15.788 6 17.797c0 2.009 3.867 3.616 8.638 3.616 4.77 0 8.637-1.607 8.637-3.616 0-2.009-3.867-3.616-8.637-3.616zm9.842 2.561c2.712-.502 4.52-1.456 4.52-2.51v-1.909c-1.607 1.105-4.319 1.758-7.231 1.858 1.356.603 2.31 1.457 2.711 2.561z"/></symbol><symbol viewBox="0 0 36 36" id="ic-mp-min3" xmlns="http://www.w3.org/2000/svg"><path d="M0 0h36v36H0z"/><path d="M18.144 13.108a4.935 4.935 0 00-4.932 4.932 4.933 4.933 0 104.932-4.932zm-7.176 3.824a1.364 1.364 0 10-.001 2.728 1.364 1.364 0 000-2.728zm14.356 0a1.364 1.364 0 100 2.728 1.364 1.364 0 000-2.728zM28.74 10H7.249A2.254 2.254 0 005 12.249v11.585a2.254 2.254 0 002.249 2.25H28.73a2.254 2.254 0 002.25-2.25V12.25A2.241 2.241 0 0028.74 10zm.316 11.404a2.277 2.277 0 00-2.767 2.767H9.56c.03-.139.042-.277.042-.42a2.277 2.277 0 00-2.678-2.245v-6.92a2.277 2.277 0 002.678-2.245c0-.147-.013-.282-.042-.42h16.677a2.009 2.009 0 00-.02.282 2.276 2.276 0 002.277 2.278c.194 0 .38-.03.56-.067v6.99z"/></symbol><symbol viewBox="0 0 36 36" id="ic-mp-min4" xmlns="http://www.w3.org/2000/svg"><path d="M0 0h36v36H0z"/><path d="M7 24.682C7 25.435 7.647 26 8.359 26H27.64c.777 0 1.359-.628 1.359-1.318v-6.65H7v6.65zm5.5-5.333h2.718c.776 0 1.358.628 1.358 1.318 0 .753-.647 1.317-1.358 1.317H12.5c-.777 0-1.359-.627-1.359-1.317 0-.753.582-1.318 1.359-1.318zM27.641 10H8.36C7.647 10 7 10.627 7 11.318v4.015h22v-4.015c0-.69-.647-1.318-1.359-1.318z"/></symbol><symbol viewBox="0 0 36 36" id="ic-mp-min5" xmlns="http://www.w3.org/2000/svg"><path d="M0 0h36v36H0z"/><path d="M11.077 13.011l3.563 3.618c.612-.612 1.168-1.113 1.558-1.503L12.58 11.51l-.39-2.004-3.228-1.948-.89.89-.891.89 1.948 3.23 1.948.444zm10.91 5.845l-3.563 3.562 5.288 5.288a2.487 2.487 0 003.563 0 2.487 2.487 0 000-3.562l-5.288-5.288zm4.341-3.117c1.837-1.67 2.115-3.563 1.726-5.121 0-.111-.056-.223-.167-.334l-.334-.278c-.056-.056-.167-.112-.223-.056-.111 0-.167.056-.222.111l-2.116 2.728a.425.425 0 01-.278.111l-.78.056c-.055 0-.11 0-.166-.056l-1.503-1.28c-.056-.056-.111-.111-.111-.223l-.112-.668c0-.055 0-.167.056-.222l2.004-2.672a.269.269 0 000-.39l-.501-.39C23.545 7 23.434 7 23.267 7c-1.392.278-3.674 1.614-4.286 3.451-.5 1.614-.334 2.727-.334 2.727 0 .89-.278 1.781-.668 2.171L7.682 25.257l-.056.055a2.184 2.184 0 000 3.062 2.184 2.184 0 003.061 0l.112-.111 9.963-10.743c1.17-1.113 3.618 0 5.566-1.781z"/></symbol><symbol viewBox="0 0 36 36" id="ic-mp-min6" xmlns="http://www.w3.org/2000/svg"><path d="M0 0h36v36H0z"/><path d="M16.772 6.062c-1.939.216-3.231 1.024-3.77 2.478-.27.754-.323 1.077-.323 2.8v1.563l-.162.053c-.323.108-.43.54-.43 1.347.053.97.538 2.1 1.238 2.855.216.215.27.323.431.754.216.592.27.754.592 1.292l.27.377v1.4l-.593.324c-.808.323-1.562.7-3.285 1.4-2.155.916-2.424 1.024-2.801 1.455-.539.592-1.023 1.67-1.4 3.016C6.269 28.253 6 29.923 6 30.73V31h23.914v-.215c0-.485-.107-1.455-.215-2.209-.377-2.154-1.023-3.77-1.777-4.524-.324-.323-.755-.485-2.694-1.347-1.67-.7-2.477-1.077-3.285-1.508l-.593-.323v-1.4l.27-.377c.323-.485.43-.7.592-1.293.162-.43.216-.539.431-.754.7-.754 1.239-1.885 1.239-2.855.054-.808-.108-1.292-.43-1.346h-.216v-1.347c0-1.454-.054-1.993-.216-2.639-.43-1.616-1.562-2.478-3.447-2.8-.539-.055-2.208-.109-2.8 0zm-.592.7c.215.162.054.324-.216.377-.269.054-.43-.053-.43-.215 0-.108.053-.162.107-.162.162-.107.485-.053.539 0zm4.04 0c.107.054.107.108.107.162 0 .162-.162.27-.43.215-.216 0-.324-.107-.324-.215.054-.215.431-.323.646-.162zm-.7 6.033c.7.108 1.238.323 1.938.7l.593.27v1.561l.538-.861.539-.862v.43c.054.916-.431 1.993-1.185 2.748-.216.215-.27.323-.43.7-.863 2.8-3.448 3.932-5.549 2.424-.754-.54-1.346-1.4-1.67-2.424-.107-.377-.16-.485-.43-.7-.7-.755-1.185-1.778-1.185-2.693 0-.216 0-.377.054-.377 0 0 .269.377.538.861l.485.862v-1.616l.646-.323c.916-.43 1.778-.7 2.64-.754.646-.108 1.992-.054 2.477.054zm-3.34 8.08c.592.268 1.023.376 1.777.376.539 0 .754 0 1.077-.108.431-.107 1.024-.377 1.4-.592l.216-.108v.377c0 .862-.323 1.724-.861 2.262-.647.647-1.509.916-2.317.7-1.238-.323-2.1-1.508-2.1-2.962v-.377l.27.162c.053 0 .322.161.538.27zm-1.4 1.022c.053.108.161.431.269.647.43.915 1.077 1.508 1.993 1.831.323.108.43.108.915.108.485 0 .647 0 .916-.108.915-.323 1.616-.916 2.047-1.831.107-.216.215-.485.269-.647.054-.107.054-.215.108-.215.053 0 .107.054.269.108l.215.107v4.417h-7.433v-4.417l.216-.107.215-.108c-.107-.054-.053.054 0 .215zm-2.91 2.801v1.67h-.268c-.216 0-.27 0-.377.108l-.108.107v3.771H6.7l.054-.431c.162-1.993.808-4.148 1.508-5.063.27-.323.377-.431.808-.646.539-.27 2.693-1.185 2.8-1.185v1.67zm13.305-1.239c1.346.593 1.992.862 2.154 1.024.808.7 1.616 3.124 1.777 5.386l.054.43h-4.362V26.53l-.108-.053c-.108-.108-.162-.108-.377-.108h-.27v-1.67c0-.915 0-1.67.054-1.67 0 0 .485.216 1.078.431z"/></symbol><symbol viewBox="0 0 60 60" id="ic-mp1" xmlns="http://www.w3.org/2000/svg"><path d="M0 0h60v60H0z"/><path d="M22.164 41.521c.398.668.664 1.47.664 2.271A4.178 4.178 0 0118.645 48a4.178 4.178 0 01-4.184-4.208c0-.801.2-1.603.664-2.27l2.39-4.075c.266-.4.665-.668 1.13-.668.464 0 .93.267 1.128.668l2.391 4.074zm23.574-21.84h-8.633v-.2c0-.735-.597-1.336-1.328-1.336h-1.992v-1.136h5.38c.73 0 1.327-.6 1.327-1.335v-.735c0-1.603-1.328-2.939-2.922-2.939H25.55c-1.593 0-2.921 1.336-2.921 2.939v.735c0 .734.598 1.335 1.328 1.335h5.379v1.136h-1.992c-.73 0-1.328.6-1.328 1.335v.2h-3.52c-4.781 0-8.7 3.942-8.7 8.75v4.475A1.32 1.32 0 0013 34.108c0 .734.598 1.335 1.328 1.335h7.836c.73 0 1.328-.6 1.328-1.335 0-.535-.265-.935-.73-1.203V29.9c0-.802.664-1.403 1.394-1.403h1.86v.468c0 .734.597 1.336 1.328 1.336h8.367c.73 0 1.328-.602 1.328-1.336v-.067h8.633c.73 0 1.328-.601 1.328-1.336v-6.545c0-.735-.531-1.336-1.262-1.336z"/></symbol><symbol viewBox="0 0 60 60" id="ic-mp2" xmlns="http://www.w3.org/2000/svg"><path d="M0 0h60v60H0z"/><path d="M24.473 36.515c-.662 0-1.242.582-1.242 1.247v5.07c0 .664.58 1.246 1.242 1.246.663 0 1.242-.582 1.242-1.246v-5.07c0-.748-.58-1.247-1.242-1.247zm5.052-5.153c-.662 0-1.242.582-1.242 1.247v5.07c0 .665.58 1.246 1.242 1.246.663 0 1.242-.581 1.242-1.246v-5.07c0-.665-.58-1.247-1.242-1.247zm18.8 14.545c-2.32-1.164-5.052-1.08-7.371.166v-6.566c3.23-3.075 5.051-7.397 5.051-11.885 0-9.225-7.37-16.622-16.48-16.622s-16.48 7.397-16.48 16.54c0 4.487 1.822 8.809 5.051 11.884v6.566c-2.236-1.247-4.969-1.33-7.37-.166a1.272 1.272 0 00-.58 1.745 1.265 1.265 0 001.74.582c1.738-.915 3.809-.748 5.465.415 2.733 1.912 6.294 1.912 9.11 0 1.905-1.33 4.306-1.33 6.128 0 1.408.998 2.982 1.413 4.555 1.413 1.657 0 3.396-.665 4.555-1.413 1.656-1.163 3.727-1.33 5.466-.415.663.332 1.408.083 1.74-.582.248-.582 0-1.33-.58-1.662zm-18.8-27.26c4.472 0 8.199 3.324 8.779 7.646H20.747c.58-4.322 4.306-7.647 8.778-7.647zm5.632 28.506c.414-.249.662-.664.662-1.08v-5.735c0-.665-.58-1.246-1.242-1.246-.663 0-1.242.581-1.242 1.246v5.818c-.828-.416-1.657-.748-2.568-.914v-2.327c0-.665-.58-1.247-1.242-1.247s-1.242.582-1.242 1.247v2.327c-1.16.166-2.236.665-3.23 1.33-1.325.914-2.899 1.163-4.39.83V28.87h2.568v3.823c0 .665.58 1.247 1.242 1.247.663 0 1.242-.582 1.242-1.247V28.87h7.62v6.4c0 .664.58 1.246 1.242 1.246s1.242-.582 1.242-1.246v-6.4h2.567v18.534c-1.076.166-2.153.166-3.23-.25z"/></symbol><symbol viewBox="0 0 60 60" id="ic-mp3" xmlns="http://www.w3.org/2000/svg"><path d="M0 0h60v60H0z"/><path d="M46.907 36.343h-.946c-1.53 0-2.622-.515-3.205-1.029-.51-.44-1.165-.808-1.821-.808h-.947c-.728 0-1.31.367-1.82.808-.583.514-1.749 1.029-3.205 1.029-1.457 0-2.622-.515-3.205-1.029-.51-.44-1.165-.808-1.821-.808h-.947c-.728 0-1.31.367-1.82.808-.583.514-1.749 1.029-3.205 1.029-1.53 0-2.622-.515-3.205-1.029-.51-.44-1.166-.808-1.821-.808h-1.02c-.728 0-1.31.367-1.82.808-.583.514-1.749 1.029-3.205 1.029h-.947a.969.969 0 00-.947.955v1.838c0 .514.437.955.947.955h.947c2.258 0 4.151-.735 5.535-1.837 1.311 1.176 3.278 1.837 5.536 1.837 2.257 0 4.151-.735 5.535-1.837 1.311 1.176 3.278 1.837 5.535 1.837 2.258 0 4.152-.735 5.536-1.837 1.31 1.176 3.277 1.837 5.535 1.837h.947c.51 0 .947-.44.947-.955v-1.838c-.146-.587-.583-.955-1.093-.955zm0 6.909h-.946c-1.53 0-2.622-.515-3.205-1.03-.51-.44-1.165-.808-1.821-.808h-.947c-.728 0-1.31.368-1.82.809-.583.514-1.749 1.029-3.205 1.029-1.457 0-2.622-.515-3.205-1.03-.51-.44-1.165-.808-1.821-.808h-.947c-.728 0-1.31.368-1.82.809-.583.514-1.749 1.029-3.205 1.029-1.53 0-2.622-.515-3.205-1.03-.51-.44-1.166-.808-1.821-.808h-1.02c-.728 0-1.31.368-1.82.809-.583.514-1.749 1.029-3.205 1.029h-.947c-.51 0-.947.44-.947.955v1.837c0 .515.437.956.947.956h.947c2.258 0 4.151-.735 5.535-1.837C19.74 46.339 21.707 47 23.965 47c2.257 0 4.151-.735 5.535-1.837C30.811 46.339 32.778 47 35.035 47c2.258 0 4.152-.735 5.536-1.837C41.88 46.339 43.848 47 46.106 47h.947c.51 0 .947-.441.947-.956v-1.837c-.146-.514-.583-.955-1.093-.955zm-23.015-8.82v-5.586h11.07v5.586c1.093 0 1.749-.367 1.967-.514.51-.515 1.093-.809 1.675-1.03V19.587c0-1.03.802-1.838 1.821-1.838 1.02 0 1.894.809 1.894 1.838v.955c0 .515.437.956.947.956h1.82c.51 0 .947-.441.947-.956v-.955c0-3.087-2.476-5.586-5.535-5.586s-5.535 2.499-5.535 5.586v5.586H23.892v-5.586c0-1.03.8-1.838 1.82-1.838s1.822.809 1.822 1.838v.955c0 .515.437.956.946.956h1.821c.51 0 .947-.441.947-.956v-.955c0-3.087-2.476-5.586-5.535-5.586-3.06 0-5.536 2.499-5.536 5.586V32.89c.583.22 1.166.588 1.675 1.029.292.147.947.514 2.04.514z"/></symbol><symbol viewBox="0 0 60 60" id="ic-mp4" xmlns="http://www.w3.org/2000/svg"><path d="M0 0h60v60H0z"/><path d="M27.262 33.01V16.246A5.25 5.25 0 0022 11a5.25 5.25 0 00-5.262 5.246V33.01C15.027 34.544 14 36.72 14 39.024 14 43.417 17.594 47 22 47c4.406 0 8-3.583 8-7.976 0-2.304-1.027-4.479-2.738-6.014zm-7.914-16.764A2.662 2.662 0 0122 13.602a2.662 2.662 0 012.652 2.644v9.342h-5.304v-9.342zM33.207 17h10.586c.662 0 1.207-.677 1.207-1.5s-.545-1.5-1.207-1.5H33.207c-.662 0-1.207.677-1.207 1.5s.545 1.5 1.207 1.5zm0 7h10.586c.662 0 1.207-.677 1.207-1.5s-.545-1.5-1.207-1.5H33.207c-.662 0-1.207.677-1.207 1.5s.545 1.5 1.207 1.5zm10.718 4h-10.85c-.59 0-1.075.677-1.075 1.5s.485 1.5 1.075 1.5h10.85c.59 0 1.075-.677 1.075-1.5-.035-.871-.52-1.5-1.075-1.5z"/></symbol><symbol viewBox="0 0 21 22" id="ic-plus" xmlns="http://www.w3.org/2000/svg"><path d="M0 11.5h21M10.5.5v21"/></symbol><symbol viewBox="0 0 17 18" id="ic-search" xmlns="http://www.w3.org/2000/svg"><path d="M7.5 14a6.5 6.5 0 100-13 6.5 6.5 0 000 13zM12 13l4 4"/></symbol><symbol viewBox="0 0 21 17" id="ic-set" xmlns="http://www.w3.org/2000/svg"><circle cx="6.5" cy="2.5" r="2"/><path d="M10 2.5h10m-19 0h2"/><circle cx="2.5" cy="2.5" r="2" transform="matrix(-1 0 0 1 17 6)"/><path d="M11 8.5H1m19 0h-2"/><circle cx="6.5" cy="14.5" r="2"/><path d="M10 14.5h10m-19 0h2"/></symbol><symbol viewBox="0 0 181 34" id="ic-soc2" xmlns="http://www.w3.org/2000/svg"><path d="M16.642 33.283c9.19 0 16.641-7.45 16.641-16.641C33.283 7.45 25.833 0 16.642 0 7.45 0 0 7.45 0 16.642c0 9.19 7.45 16.641 16.642 16.641z"/><path d="M17.85 24.358v-7.716h2.139l.278-2.697H17.85v-1.301c0-.65.093-1.116 1.023-1.116h1.302V8.925h-2.139c-2.603 0-3.44 1.302-3.44 3.44v1.58h-1.58v2.697h1.58v7.716h3.254zM65.73 33.283c9.19 0 16.641-7.45 16.641-16.641C82.371 7.45 74.921 0 65.73 0c-9.191 0-16.642 7.45-16.642 16.642 0 9.19 7.45 16.641 16.642 16.641z"/><path d="M62.847 16.642a2.897 2.897 0 012.883-2.883 2.897 2.897 0 012.882 2.883 2.897 2.897 0 01-2.882 2.882 2.897 2.897 0 01-2.883-2.882zm-1.487 0a4.364 4.364 0 004.37 4.37 4.364 4.364 0 004.37-4.37 4.365 4.365 0 00-4.37-4.37 4.365 4.365 0 00-4.37 4.37zm7.902-4.556c0 .558.465 1.023 1.023 1.023.558 0 1.023-.465 1.023-1.023 0-.558-.465-1.023-1.023-1.023-.558 0-1.023.465-1.023 1.023zM62.29 23.614c-.837 0-1.302-.186-1.58-.279a6.247 6.247 0 01-1.023-.65c-.28-.28-.465-.558-.651-1.023-.093-.279-.28-.744-.28-1.58 0-.93-.092-1.21-.092-3.44 0-2.325 0-2.604.093-3.44 0-.837.186-1.302.279-1.58.186-.373.371-.652.65-1.024.28-.278.558-.464 1.023-.65.279-.093.744-.28 1.58-.28.93 0 1.21-.092 3.44-.092 2.325 0 2.604 0 3.44.093.837 0 1.302.186 1.58.279a6.23 6.23 0 011.023.65c.28.28.465.558.651 1.023.093.28.28.744.28 1.58 0 .93.092 1.21.092 3.44 0 2.325 0 2.604-.093 3.44 0 .837-.186 1.302-.279 1.58a6.279 6.279 0 01-.65 1.024c-.28.279-.558.465-1.023.65-.279.093-.744.28-1.58.28-.93 0-1.21.092-3.44.092-2.232 0-2.51 0-3.44-.093zm-.093-15.526c-.93 0-1.58.186-2.046.372-.558.186-1.022.558-1.487 1.023-.465.465-.744.93-1.023 1.487-.186.558-.372 1.209-.372 2.046 0 .93-.093 1.208-.093 3.533 0 2.324 0 2.603.093 3.532 0 .93.186 1.58.372 2.046.186.558.558 1.023 1.023 1.487.465.465.93.744 1.487 1.023.558.186 1.209.372 2.046.372.93 0 1.208.093 3.532.093 2.325 0 2.604 0 3.533-.093.93 0 1.58-.186 2.046-.372.557-.186 1.022-.558 1.487-1.023.465-.465.744-.93 1.023-1.487.186-.558.372-1.209.372-2.046 0-.93.093-1.208.093-3.532 0-2.325 0-2.604-.093-3.533 0-.93-.186-1.58-.372-2.046-.186-.557-.558-1.022-1.023-1.487-.465-.465-.93-.744-1.487-1.023-.558-.186-1.209-.372-2.046-.372-.93 0-1.208-.093-3.532-.093-2.325.093-2.604.093-3.533.093zM114.818 33.283c9.191 0 16.641-7.45 16.641-16.641C131.459 7.45 124.009 0 114.818 0c-9.191 0-16.642 7.45-16.642 16.642 0 9.19 7.451 16.641 16.642 16.641z"/><path d="M123.371 13.202s-.186-1.209-.651-1.767c-.65-.65-1.394-.65-1.766-.744-2.417-.186-6.043-.186-6.043-.186s-3.626 0-6.043.186c-.372 0-1.116 0-1.767.744-.557.558-.65 1.767-.65 1.767s-.186 1.394-.186 2.789v1.301c0 1.395.186 2.79.186 2.79s.186 1.208.65 1.766c.651.65 1.488.65 1.953.744 1.394.093 5.857.186 5.857.186s3.626 0 6.043-.186c.372 0 1.116 0 1.766-.744.558-.558.651-1.767.651-1.767s.186-1.394.186-2.789v-1.301c0-1.395-.186-2.79-.186-2.79zm-6.229 3.533l-4.091 2.138v-4.835l4.649 2.418-.558.279zM163.906 33.283c9.191 0 16.641-7.45 16.641-16.641C180.547 7.45 173.097 0 163.906 0c-9.191 0-16.642 7.45-16.642 16.642 0 9.19 7.451 16.641 16.642 16.641z"/><path d="M164.743 23.335c-6.322 0-9.948-4.276-10.041-11.528h3.161c.093 5.3 2.417 7.53 4.276 7.996v-7.996h2.976v4.556c1.859-.186 3.718-2.231 4.369-4.556h2.975c-.279 1.209-.744 2.325-1.394 3.254-.744 1.023-1.581 1.86-2.604 2.417 1.209.558 2.139 1.395 2.975 2.418.837 1.022 1.395 2.138 1.767 3.44h-3.254c-.744-2.232-2.417-3.905-4.741-4.091v4.09h-.465z"/></symbol><symbol viewBox="0 0 22 22" id="ic-sort1" xmlns="http://www.w3.org/2000/svg"><path d="M21.261 9.732a.314.314 0 01.239.299v1.94a.303.303 0 01-.233.297l-2.378.56-.285.068-.081.28a7.735 7.735 0 01-.661 1.605l-.142.256.154.25 1.283 2.073v.001a.307.307 0 01-.043.378l-1.374 1.375a.306.306 0 01-.378.042l-2.074-1.283-.25-.154-.255.142a7.733 7.733 0 01-1.604.661l-.28.081-.068.285-.56 2.378-.001.001a.303.303 0 01-.297.233H10.03a.303.303 0 01-.296-.233l-.561-2.38-.067-.284-.281-.08a7.735 7.735 0 01-1.604-.662l-.256-.142-.25.154-2.073 1.283a.306.306 0 01-.378-.042l-1.375-1.375a.307.307 0 01-.043-.378l1.281-2.075.154-.25-.143-.256a7.654 7.654 0 01-.66-1.6l-.081-.281-.284-.067-2.379-.561a.304.304 0 01-.233-.298V10.03c0-.144.098-.263.23-.293l.003-.001 2.379-.561.284-.067.081-.281a7.738 7.738 0 01.661-1.604l.142-.256-.154-.25-1.283-2.074a.307.307 0 01.043-.378L4.26 2.889c.1-.1.257-.118.377-.044l2.075 1.282.25.154.255-.142a7.734 7.734 0 011.604-.661l.28-.081.068-.285.56-2.379h.001A.303.303 0 0110.027.5h1.944c.14 0 .26.098.29.228V.73l.562 2.378.067.285.28.081a7.736 7.736 0 011.604.661l.256.142.25-.154 2.074-1.28a.306.306 0 01.377.042l1.375 1.375a.307.307 0 01.043.378l-1.28 2.075-.154.25.142.255c.277.502.497 1.039.66 1.604l.082.281.284.067 2.378.561zM8.474 11a2.524 2.524 0 105.047 0 2.524 2.524 0 00-5.047 0z"/></symbol><symbol viewBox="0 0 26 15" id="ic-sort2" xmlns="http://www.w3.org/2000/svg"><path d="M12 1.5h13m-8 6h8m-4 6h4M13.133 14L7.067 1M1 14L7.067 1M3.6 8.8h6.933"/></symbol><symbol viewBox="0 0 19 19" id="ic-tel" xmlns="http://www.w3.org/2000/svg"><path d="M1 4.328C1 11.884 7.116 18 14.672 18c.63 0 1.26 0 1.889-.09.9-.09 1.439-.9 1.439-1.709v-2.428c0-.81-.54-1.53-1.26-1.8l-2.967-.989c-.72-.27-1.53.18-1.8.99-.27.989-1.529 1.349-2.248.63l-3.238-3.33c-.72-.72-.36-1.979.63-2.249.809-.18 1.259-.989.989-1.798l-.99-2.969C6.846 1.54 6.127 1 5.317 1H2.89c-.9 0-1.62.63-1.71 1.44C1 3.068 1 3.697 1 4.327z"/></symbol><symbol viewBox="0 0 40 40" id="ic-user" xmlns="http://www.w3.org/2000/svg"><rect x=".5" y=".5" width="39" height="39" rx="19.5"/><path d="M13.333 25.778v-1.881s.04-.56.433-.88c1.337-1.12 4.484-1.36 6.214-1.36 1.73 0 4.877.24 6.215 1.36.432.32.472.88.472.88v1.88m-6.687-6.386c1.692 0 3.029-1.4 3.029-3.081 0-1.72-1.377-3.081-3.029-3.081a3.048 3.048 0 00-3.028 3.041c0 1.72 1.376 3.121 3.028 3.121z"/></symbol><symbol viewBox="0 0 20 20" id="ico-close" xmlns="http://www.w3.org/2000/svg"><path d="M20 2.357L17.643 0 10 7.643 2.357 0 0 2.357 7.643 10 0 17.643 2.357 20 10 12.357 17.643 20 20 17.643 12.357 10 20 2.357z"/></symbol><symbol viewBox="0 0 128 40" id="logo" xmlns="http://www.w3.org/2000/svg"><path d="M66.65 7.145H50.407l-5.438 25.61h16.21l1.177-5.475H52.72l1.107-5.222h7.104l1.102-5.214h-7.108l.92-4.298h9.665l1.14-5.4zm22.236 1.737l-3.975 4.795c-1.558-1.081-3.663-1.674-5.5-1.65-1.318.017-3.295.672-3.373 2.251-.046.97.787 1.903 2.337 2.321l2.512.7c2.284.63 4.862 1.862 4.911 5.389.1 7.125-6.27 10.465-12.591 10.556-3.83.054-6.623-.85-8.911-2.163l3.954-4.825c1.6.875 3.854 1.6 6.134 1.567 1.761-.025 4.103-.676 4.074-2.847-.029-1.957-3.005-2.16-5.036-2.935-2.69-1.11-4.824-2.992-4.932-5.603-.248-6.163 6.147-9.711 11.771-9.79 3.556-.046 6.656.754 8.625 2.234zm13.317 5.173c0 2.055-.734 4.368-3.826 4.368h-2.051l1.247-5.877h2.42c1.29 0 2.21.253 2.21 1.509zm7.311-.958c0-4.227-3.27-5.952-8.894-5.952h-8.485l-5.437 25.61h6.573l1.948-9.11h2.682c8.67-.004 11.613-5.914 11.613-10.548zm10.921 9.665h-4.721s4.294-9.309 4.589-10.262c-.183.954.132 10.262.132 10.262zm7.498 9.993l-2.317-25.61h-8.285l-13.669 25.61h7.162l2.428-4.924h7.515l.298 4.924h6.868zM24.337 20.064a5.027 5.027 0 11-10.054 0 5.023 5.023 0 015.027-5.023 5.026 5.026 0 015.027 5.023zm9.218-8.563l1.061-5.035c-11.837-.95-18.862 3.41-18.862 3.41a28.553 28.553 0 013.349-6.432L15.265 0c-6.677 9.396-6.5 18.038-6.5 18.038a24.562 24.562 0 01-2.109-2.914c-.766-1.206-1.206-1.998-1.74-3.154L0 13.574c5.148 10.76 12.351 14.61 12.351 14.61a31.856 31.856 0 01-7.2.31L4.083 33.56c11.2 1.003 18.85-3.39 18.85-3.39-.688 2.271-2.561 5.214-3.348 6.395L23.413 40c6.485-9.08 6.523-18.067 6.523-18.067 1.803 2.006 3.257 4.85 3.85 6.11l4.924-1.608c-4.514-10.01-12.372-14.61-12.372-14.61a31.346 31.346 0 017.216-.324z"/></symbol><symbol viewBox="0 0 176 33" id="soc" xmlns="http://www.w3.org/2000/svg"><path d="M16.209 32.417c8.951 0 16.208-7.257 16.208-16.209C32.417 7.258 25.16 0 16.208 0 7.258 0 0 7.257 0 16.209c0 8.951 7.257 16.208 16.209 16.208z"/><path d="M17.386 23.725v-7.516h2.082l.272-2.626h-2.354v-1.268c0-.633.09-1.086.996-1.086h1.267V8.693h-2.082c-2.536 0-3.35 1.268-3.35 3.35v1.54h-1.54v2.626h1.54v7.516h3.169zM64.02 32.417c8.951 0 16.208-7.257 16.208-16.209C80.228 7.258 72.97 0 64.019 0S47.811 7.257 47.811 16.209c0 8.951 7.257 16.208 16.208 16.208z"/><path d="M61.212 16.21a2.821 2.821 0 012.807-2.808 2.821 2.821 0 012.807 2.807 2.821 2.821 0 01-2.807 2.807 2.821 2.821 0 01-2.807-2.807zm-1.449 0a4.25 4.25 0 004.256 4.255 4.25 4.25 0 004.256-4.256 4.25 4.25 0 00-4.256-4.256 4.25 4.25 0 00-4.256 4.256zm7.697-4.438c0 .544.453.996.996.996.543 0 .996-.452.996-.996 0-.543-.453-.996-.996-.996-.543 0-.996.453-.996.996zm-6.79 11.229c-.815 0-1.268-.181-1.54-.272a6.093 6.093 0 01-.996-.634c-.271-.272-.452-.543-.634-.996-.09-.272-.271-.724-.271-1.54 0-.905-.09-1.177-.09-3.35 0-2.264 0-2.535.09-3.35 0-.815.181-1.268.271-1.54.182-.362.363-.633.634-.996.272-.271.544-.452.996-.633.272-.09.725-.272 1.54-.272.905 0 1.177-.09 3.35-.09 2.264 0 2.536 0 3.35.09.816 0 1.268.181 1.54.272.362.18.634.362.996.633.272.272.453.544.634.997.09.271.272.724.272 1.539 0 .905.09 1.177.09 3.35 0 2.264 0 2.536-.09 3.35 0 .816-.182 1.268-.272 1.54a6.088 6.088 0 01-.634.996c-.272.272-.543.453-.996.634-.272.09-.725.272-1.54.272-.905 0-1.177.09-3.35.09s-2.445 0-3.35-.09zm-.09-15.122c-.906 0-1.54.18-1.993.362-.543.18-.996.543-1.449.996-.452.453-.724.905-.996 1.449-.18.543-.362 1.177-.362 1.992 0 .905-.09 1.177-.09 3.44 0 2.265 0 2.536.09 3.442 0 .905.181 1.539.362 1.992.181.543.544.996.996 1.449.453.452.906.724 1.45.996.542.18 1.176.362 1.991.362.906 0 1.177.09 3.441.09s2.536 0 3.441-.09c.906 0 1.54-.181 1.992-.362.544-.181.996-.544 1.449-.996.453-.453.724-.906.996-1.45.181-.542.362-1.176.362-1.991 0-.906.09-1.177.09-3.441s0-2.536-.09-3.441c0-.906-.18-1.54-.362-1.992-.181-.544-.543-.996-.996-1.45-.453-.452-.905-.724-1.449-.995-.543-.181-1.177-.362-1.992-.362-.905 0-1.177-.09-3.44-.09-2.265.09-2.536.09-3.442.09zM111.83 32.417c8.952 0 16.208-7.257 16.208-16.209C128.038 7.258 120.782 0 111.83 0c-8.952 0-16.209 7.257-16.209 16.209 0 8.951 7.257 16.208 16.209 16.208z"/><path d="M120.161 12.859s-.182-1.177-.634-1.72c-.634-.634-1.359-.634-1.721-.725-2.354-.181-5.886-.181-5.886-.181s-3.531 0-5.885.181c-.363 0-1.087 0-1.721.724-.543.544-.634 1.72-.634 1.72s-.181 1.36-.181 2.717v1.268c0 1.358.181 2.717.181 2.717s.181 1.177.634 1.72c.634.634 1.449.634 1.902.724 1.358.091 5.704.182 5.704.182s3.532 0 5.886-.181c.362 0 1.087 0 1.721-.725.543-.543.634-1.72.634-1.72s.181-1.359.181-2.717v-1.268c0-1.358-.181-2.716-.181-2.716zm-6.067 3.44l-3.985 2.084v-4.71l4.528 2.355-.543.272zM159.641 32.417c8.951 0 16.208-7.257 16.208-16.209 0-8.95-7.257-16.208-16.208-16.208-8.952 0-16.209 7.257-16.209 16.209 0 8.951 7.257 16.208 16.209 16.208z"/><path d="M160.456 22.728c-6.158 0-9.689-4.165-9.78-11.228h3.079c.09 5.161 2.354 7.335 4.165 7.787V11.5h2.898v4.437c1.811-.181 3.622-2.173 4.256-4.437h2.897c-.271 1.177-.724 2.264-1.358 3.17-.724.995-1.539 1.81-2.535 2.354 1.177.543 2.082 1.358 2.897 2.354s1.359 2.083 1.721 3.35h-3.17c-.724-2.173-2.354-3.803-4.618-3.984v3.984h-.452z"/></symbol></svg>